<svg width="36" height="40" viewBox="0 0 36 40" fill="none" xmlns="http://www.w3.org/2000/svg">
<path d="M18.6856 15.9838C16.2146 12.2791 17.6971 1.65353 15.4738 1.01283C13.4976 0.419352 7.36906 4.47174 4.3553 9.85783C1.34048 15.2445 -2.36491 23.2971 5.14636 28.3882C9.24658 31.5496 3.9611 33.0324 3.02117 30.5128C2.93365 35.6374 7.96764 35.7691 8.70393 32.1432C9.21606 29.6187 6.14786 24.3227 5.19602 21.766C2.87272 15.5406 9.74137 7.18871 9.74137 7.18871C9.74137 7.18871 3.61411 17.2698 6.08448 22.1623C14.5351 34.6144 8.91002 34.3177 6.72645 35.8015C14.979 36.1964 17.8157 28.9185 18.2901 27.9437C19.3759 25.0281 18.7091 19.8396 16.0164 17.3704C15.3745 16.8017 14.7815 17.4933 12.5451 17.3704C10.3088 17.2456 11.52 15.1464 11.52 15.1464C11.52 15.1464 10.7483 14.4914 10.7291 14.2076C10.7104 13.9245 11.4195 13.7135 11.4195 13.7135C11.4195 13.7135 10.7279 13.3421 10.6788 13.0219C10.6304 12.6984 11.4213 11.9328 11.4213 11.9328C11.4213 11.9328 10.3771 11.451 10.3578 10.9692C10.3392 10.4875 11.4971 9.69268 12.606 7.38735C13.4455 5.64519 13.397 2.74266 14.7306 2.07463C15.5215 3.43439 12.2614 13.8109 17.5972 17.122C18.585 17.6652 24.9103 22.6068 19.7212 28.9805C25.4543 24.9783 20.239 18.2656 18.6856 15.9838Z" fill="#746CA7"/>
<path d="M22.8853 0.320423C25.3563 3.23731 22.8356 14.2564 28.6668 17.9122C36.5717 23.5459 31 31.1404 29.8527 33.1818C31.8295 27.4499 31.6817 24.4847 30.7417 22.1626C29.8017 19.8412 23.8736 13.6642 22.9349 10.5498C21.9962 7.43623 21.6994 -1.15972 17.1509 0.405494C21.3541 5.70832 18.8086 10.5704 24.5404 17.8625C30.2722 25.154 29.11 35.4045 24.3194 37.7749C31.8045 27.8684 25.2084 20.1349 23.2812 17.0702C22.2617 15.4491 20.1199 14.1062 19.9211 10.3517C19.7236 6.59551 17.1135 0.096791 16.0674 0.469404C18.785 5.85539 15.9681 13.4157 22.0458 20.6798C26.1955 25.2259 28.0259 35.1088 21.0101 40C28.3723 39.7032 32.6215 31.848 34.3998 26.7569C36.7715 19.6908 30.0015 13.6144 28.7175 11.1428C27.4326 8.67041 26.7396 0.371253 22.8853 0.320423Z" fill="#746CA7"/>
<path d="M32.3718 8.3006C30 4.52076 26.7108 2.30422 25.4814 1.37109C28.8514 7.18924 28.628 9.78318 29.8511 11.5633C31.0742 13.3415 33.2237 13.7506 35.2626 20.1096C35.3358 19.2055 34.7436 12.0822 32.3718 8.3006Z" fill="#746CA7"/>
<path d="M22.3477 4.52176C22.514 5.44628 23.3287 10.2282 23.9594 11.1185C23.5534 5.26316 24.1096 5.5959 23.6266 3.40924C23.1437 1.22184 22.2918 0.0365808 19.4756 0C22.2918 2.37169 22.1813 3.59736 22.3477 4.52176Z" fill="#746CA7"/>
</svg>
