<svg width="20" height="20" viewBox="0 0 20 20" fill="none" xmlns="http://www.w3.org/2000/svg">
<path d="M6.66675 1.66669H13.3334C13.9965 1.66669 14.6323 1.93008 15.1012 2.39892C15.57 2.86776 15.8334 3.50365 15.8334 4.16669V17.5C15.834 17.6469 15.7958 17.7913 15.7226 17.9186C15.6494 18.0459 15.5439 18.1516 15.4168 18.225C15.2898 18.297 15.1461 18.3344 15.0001 18.3334C14.8541 18.3344 14.7104 18.297 14.5834 18.225L10.0001 15.575L5.41675 18.225C5.29007 18.2982 5.14637 18.3367 5.00009 18.3367C4.85381 18.3367 4.7101 18.2982 4.58342 18.225C4.45625 18.1516 4.35074 18.0459 4.27757 17.9186C4.2044 17.7913 4.16617 17.6469 4.16675 17.5V4.16669C4.16675 3.50365 4.43015 2.86776 4.89899 2.39892C5.36783 1.93008 6.00371 1.66669 6.66675 1.66669Z" fill="#191632"/>
</svg>
