<svg width="17" height="20" viewBox="0 0 17 20" fill="none" xmlns="http://www.w3.org/2000/svg">
<path fill-rule="evenodd" clip-rule="evenodd" d="M2.83398 4.16732C2.37375 4.16732 2.00065 4.54041 2.00065 5.00065V16.6673C2.00065 17.1276 2.37375 17.5006 2.83398 17.5006H14.5007C14.9609 17.5006 15.334 17.1276 15.334 16.6673V5.00065C15.334 4.54041 14.9609 4.16732 14.5007 4.16732H2.83398ZM0.333984 5.00065C0.333984 3.61994 1.45327 2.50065 2.83398 2.50065H14.5007C15.8814 2.50065 17.0007 3.61994 17.0007 5.00065V16.6673C17.0007 18.048 15.8814 19.1673 14.5007 19.1673H2.83398C1.45327 19.1673 0.333984 18.048 0.333984 16.6673V5.00065Z" fill="#89888E"/>
<path fill-rule="evenodd" clip-rule="evenodd" d="M12.0007 0.833984C12.4609 0.833984 12.834 1.20708 12.834 1.66732V5.00065C12.834 5.46089 12.4609 5.83398 12.0007 5.83398C11.5404 5.83398 11.1673 5.46089 11.1673 5.00065V1.66732C11.1673 1.20708 11.5404 0.833984 12.0007 0.833984Z" fill="#89888E"/>
<path fill-rule="evenodd" clip-rule="evenodd" d="M5.33398 0.833984C5.79422 0.833984 6.16732 1.20708 6.16732 1.66732V5.00065C6.16732 5.46089 5.79422 5.83398 5.33398 5.83398C4.87375 5.83398 4.50065 5.46089 4.50065 5.00065V1.66732C4.50065 1.20708 4.87375 0.833984 5.33398 0.833984Z" fill="#89888E"/>
<path fill-rule="evenodd" clip-rule="evenodd" d="M0.333984 8.33398C0.333984 7.87375 0.70708 7.50065 1.16732 7.50065H16.1673C16.6276 7.50065 17.0007 7.87375 17.0007 8.33398C17.0007 8.79422 16.6276 9.16732 16.1673 9.16732H1.16732C0.70708 9.16732 0.333984 8.79422 0.333984 8.33398Z" fill="#89888E"/>
</svg>
