<svg width="20" height="20" viewBox="0 0 20 20" fill="none" xmlns="http://www.w3.org/2000/svg">
<path d="M10.0001 3C5.58905 3 2.00006 6.14 2.00006 10C2.00006 11.582 2.60406 13.1 3.71306 14.32L2.12106 16.174C1.99306 16.322 1.96406 16.531 2.04606 16.708C2.12706 16.886 2.30506 17 2.50006 17H10.0001C14.411 17 18 13.86 18 10C18 6.14 14.411 3 10.0001 3ZM6.00005 11C5.44805 11 5.00005 10.552 5.00005 10C5.00005 9.448 5.44805 9 6.00005 9C6.55205 9 7.00005 9.448 7.00005 10C7.00005 10.552 6.55205 11 6.00005 11ZM10.0001 11C9.44805 11 9.00005 10.552 9.00005 10C9.00005 9.448 9.44805 9 10.0001 9C10.5521 9 11.0001 9.448 11.0001 10C11.0001 10.552 10.5521 11 10.0001 11ZM14.0001 11C13.4481 11 13.0001 10.552 13.0001 10C13.0001 9.448 13.4481 9 14.0001 9C14.5521 9 15 9.448 15 10C15 10.552 14.5521 11 14.0001 11Z" fill="#191632"/>
<circle cx="18.5" cy="1.5" r="1.5" fill="#FB3030"/>
</svg>
