<svg width="20" height="20" viewBox="0 0 20 20" fill="none" xmlns="http://www.w3.org/2000/svg">
<path d="M14.0481 1.95816C13.3531 1.95816 12.6649 2.09165 12.0227 2.35102C11.3806 2.61036 10.797 2.99063 10.3056 3.4699L10.0498 3.71928L9.79378 3.46977C8.80106 2.50205 7.45486 1.95858 6.05139 1.95858C4.64791 1.95858 3.30171 2.50205 2.30899 3.46977C1.31623 4.43752 0.758301 5.7503 0.758301 7.11937C0.758301 8.48844 1.31623 9.80122 2.30899 10.769L9.4495 17.7296C9.78113 18.0529 10.3184 18.0529 10.65 17.7296L17.7905 10.769C18.2822 10.2899 18.6722 9.72103 18.9384 9.09484C19.2046 8.46859 19.3416 7.79732 19.3416 7.11937C19.3416 6.44142 19.2046 5.77015 18.9384 5.1439C18.6723 4.51777 18.282 3.94869 17.7904 3.46963C17.2989 2.99043 16.7155 2.61034 16.0735 2.35102C15.4314 2.09165 14.7431 1.95816 14.0481 1.95816Z" fill="#191632"/>
</svg>
