<svg width="20" height="20" viewBox="0 0 20 20" fill="none" xmlns="http://www.w3.org/2000/svg">
<path d="M18.0585 10.2313L18.0584 10.2314L18.0605 10.2332C18.2339 10.3849 18.4518 10.4727 18.6715 10.4727C18.8903 10.4727 19.1304 10.3855 19.3056 10.2103L19.3067 10.2091C19.6339 9.86019 19.6357 9.2919 19.2842 8.96198C19.2841 8.96185 19.2839 8.96173 19.2838 8.96161L10.613 0.49727L10.613 0.497262L10.6123 0.496572C10.2627 0.168844 9.73728 0.168844 9.38771 0.496572L9.3877 0.496564L9.38698 0.49727L0.715474 8.9623L0.715048 8.96273C0.365366 9.31241 0.365368 9.85938 0.693272 10.2091L0.693253 10.2092L0.694394 10.2103C1.04408 10.56 1.59103 10.56 1.94079 10.2321L1.9408 10.2321L1.94154 10.2313L10 2.3579L18.0585 10.2313ZM16.9046 18.4748V10.4021C16.9046 9.92021 16.5106 9.52619 16.0288 9.52619C15.5469 9.52619 15.1529 9.92021 15.1529 10.4021V17.5989H12.6721V13.2306C12.6721 12.6042 12.1542 12.0864 11.5278 12.0864H8.45152C7.82516 12.0864 7.30726 12.6042 7.30726 13.2306V17.5989H4.82646V10.4021C4.82646 9.92021 4.43243 9.52619 3.9506 9.52619C3.46876 9.52619 3.07474 9.92021 3.07474 10.4021V18.4748C3.07474 18.9566 3.46876 19.3507 3.9506 19.3507H8.18312C8.66495 19.3507 9.05897 18.9566 9.05897 18.4748V13.8381H10.9204V18.4748C10.9204 18.9566 11.3144 19.3507 11.7962 19.3507H16.0288C16.5321 19.3507 16.9046 18.9558 16.9046 18.4748Z" fill="#89888E" stroke="#89888E" stroke-width="0.1"/>
</svg>
