<svg width="17" height="20" viewBox="0 0 17 20" fill="none" xmlns="http://www.w3.org/2000/svg">
<path fill-rule="evenodd" clip-rule="evenodd" d="M8.33333 1.66667C6.56522 1.66667 4.86953 2.36905 3.61929 3.61929C2.36905 4.86953 1.66667 6.56522 1.66667 8.33333C1.66667 10.915 3.34645 13.4202 5.18829 15.3644C6.09218 16.3185 6.99889 17.0996 7.68056 17.6424C7.93426 17.8444 8.15585 18.0127 8.33333 18.1438C8.51081 18.0127 8.7324 17.8444 8.9861 17.6424C9.66778 17.0996 10.5745 16.3185 11.4784 15.3644C13.3202 13.4202 15 10.915 15 8.33333C15 6.56522 14.2976 4.86953 13.0474 3.61929C11.7971 2.36905 10.1014 1.66667 8.33333 1.66667ZM8.33333 19.1667C7.87108 19.86 7.87087 19.8599 7.87063 19.8597L7.86825 19.8582L7.8627 19.8544L7.8436 19.8415C7.82737 19.8305 7.80423 19.8147 7.77463 19.7942C7.71544 19.7532 7.63039 19.6934 7.52316 19.616C7.30879 19.4612 7.0053 19.2352 6.64235 18.9462C5.91778 18.3692 4.94949 17.5357 3.97837 16.5106C2.07022 14.4965 0 11.585 0 8.33333C4.96705e-08 6.1232 0.877974 4.00358 2.44078 2.44078C4.00358 0.877974 6.1232 0 8.33333 0C10.5435 0 12.6631 0.877974 14.2259 2.44078C15.7887 4.00358 16.6667 6.1232 16.6667 8.33333C16.6667 11.585 14.5964 14.4965 12.6883 16.5106C11.7172 17.5357 10.7489 18.3692 10.0243 18.9462C9.66137 19.2352 9.35788 19.4612 9.14351 19.616C9.03628 19.6934 8.95123 19.7532 8.89204 19.7942C8.86244 19.8147 8.83929 19.8305 8.82307 19.8415L8.80397 19.8544L8.79842 19.8582L8.79666 19.8593C8.79642 19.8595 8.79558 19.86 8.33333 19.1667ZM8.33333 19.1667L8.79558 19.86C8.51567 20.0467 8.15055 20.0464 7.87063 19.8597L8.33333 19.1667Z" fill="#89888E"/>
<path fill-rule="evenodd" clip-rule="evenodd" d="M8.33333 6.66667C7.41286 6.66667 6.66667 7.41286 6.66667 8.33333C6.66667 9.25381 7.41286 10 8.33333 10C9.25381 10 10 9.25381 10 8.33333C10 7.41286 9.25381 6.66667 8.33333 6.66667ZM5 8.33333C5 6.49238 6.49238 5 8.33333 5C10.1743 5 11.6667 6.49238 11.6667 8.33333C11.6667 10.1743 10.1743 11.6667 8.33333 11.6667C6.49238 11.6667 5 10.1743 5 8.33333Z" fill="#89888E"/>
</svg>
