<svg width="20" height="20" viewBox="0 0 20 20" fill="none" xmlns="http://www.w3.org/2000/svg">
<path d="M2.04764 13.1521L0.446487 11.551C0.297243 11.4029 0.180561 11.2254 0.103917 11.0296C0.0272721 10.8339 -0.007646 10.6243 0.00139781 10.4143C0.0104416 10.2043 0.0632479 9.99845 0.156436 9.81002C0.249623 9.62159 0.381138 9.45471 0.542556 9.32005C2.36334 7.85617 4.50212 6.83979 6.78703 6.35259C8.89602 5.88247 11.0826 5.88247 13.1916 6.35259C15.486 6.84295 17.6326 7.86687 19.4575 9.3414C19.6184 9.47565 19.7496 9.64194 19.8427 9.82968C19.9359 10.0174 19.9889 10.2225 19.9984 10.4319C20.008 10.6412 19.9738 10.8503 19.8981 11.0457C19.8225 11.2411 19.7069 11.4187 19.5589 11.567L17.9577 13.1681C17.7012 13.4297 17.3584 13.5891 16.9931 13.6166C16.6278 13.6441 16.265 13.5378 15.9723 13.3176C15.3923 12.8728 14.7639 12.495 14.0989 12.1914C13.8361 12.0722 13.613 11.8802 13.4559 11.638C13.2989 11.3958 13.2146 11.1137 13.213 10.8251V9.46949C11.117 8.89308 8.90434 8.89308 6.80838 9.46949V10.8251C6.80677 11.1137 6.72245 11.3958 6.56543 11.638C6.4084 11.8801 6.18525 12.0722 5.92241 12.1914C5.2575 12.495 4.62905 12.8728 4.04907 13.3176C3.75323 13.5403 3.38587 13.6465 3.01685 13.6159C2.64783 13.5854 2.30289 13.4204 2.04764 13.1521Z" fill="#191632"/>
</svg>
