<svg width="20" height="20" viewBox="0 0 20 20" fill="none" xmlns="http://www.w3.org/2000/svg">
<path d="M17.8571 2.85718H2.14286C0.959388 2.85718 0 3.81657 0 5.00003V15C0 16.1835 0.959388 17.1429 2.14286 17.1429H17.8571C19.0406 17.1429 20 16.1835 20 15V5.00003C20 3.81657 19.0406 2.85718 17.8571 2.85718ZM18.5714 11.1329L14.0764 6.63789C13.7975 6.35903 13.3453 6.35903 13.0664 6.63789L7.14287 12.5614L4.79071 10.2093C4.5118 9.9304 4.05962 9.9304 3.78072 10.2093L1.42856 12.5614V5.00003C1.42856 4.60553 1.74835 4.28573 2.14286 4.28573H17.8571C18.2516 4.28573 18.5714 4.60553 18.5714 5.00003V11.1329H18.5714Z" fill="#191632"/>
<path d="M6.4285 9.99994C7.61197 9.99994 8.57135 9.04056 8.57135 7.85709C8.57135 6.67362 7.61197 5.71423 6.4285 5.71423C5.24503 5.71423 4.28564 6.67362 4.28564 7.85709C4.28564 9.04056 5.24503 9.99994 6.4285 9.99994Z" fill="#191632"/>
</svg>
