<svg width="20" height="20" viewBox="0 0 20 20" fill="none" xmlns="http://www.w3.org/2000/svg">
<path d="M10.6869 2.37041L12.5912 5.82755C12.8293 6.23912 13.226 6.48606 13.6227 6.65068L17.3519 7.47381C17.9867 7.63844 18.2247 8.37925 17.7487 8.87313L15.2096 11.8364C14.8922 12.1657 14.7336 12.6595 14.8129 13.1534L15.2096 17.1044C15.289 17.7629 14.6542 18.1745 14.0988 17.9276L10.6076 16.2813C10.2109 16.1167 9.7348 16.1167 9.33808 16.2813L5.84688 17.9276C5.29147 18.1745 4.65671 17.6806 4.73605 17.1044L5.13278 13.1534C5.21212 12.6595 5.05343 12.248 4.73605 11.8364L2.197 8.87313C1.80028 8.37925 2.03831 7.63844 2.59373 7.47381L6.32296 6.65068C6.79903 6.56837 7.11641 6.23912 7.35444 5.82755L9.25873 2.37041C9.57611 1.87653 10.3696 1.87653 10.6869 2.37041Z" fill="#191632"/>
</svg>
