<svg width="16" height="19" viewBox="0 0 16 19" fill="none" xmlns="http://www.w3.org/2000/svg">
<path d="M14.6476 18.901C14.2328 18.901 13.8965 18.5722 13.8965 18.1666C13.8965 15.2912 11.5041 12.9519 8.56336 12.9519H7.43664C4.49594 12.9519 2.1035 15.2912 2.1035 18.1666C2.1035 18.5722 1.76721 18.901 1.35235 18.901C0.937495 18.901 0.601207 18.5722 0.601207 18.1666C0.601207 14.4813 3.66757 11.483 7.43664 11.483H8.56336C12.3324 11.483 15.3988 14.4813 15.3988 18.1666C15.3988 18.5722 15.0625 18.901 14.6476 18.901Z" fill="#5843E3"/>
<path d="M7.92488 10.0141C5.12916 10.0141 2.85465 7.79015 2.85465 5.05654C2.85465 2.32293 5.12916 0.0989584 7.92488 0.0989584C10.7206 0.0989584 12.9951 2.32293 12.9951 5.05654C12.9951 7.79015 10.7206 10.0141 7.92488 10.0141ZM7.92488 1.56787C5.95752 1.56787 4.35694 3.13289 4.35694 5.05654C4.35694 6.98019 5.95752 8.54521 7.92488 8.54521C9.89225 8.54521 11.4928 6.98019 11.4928 5.05654C11.4928 3.13289 9.89225 1.56787 7.92488 1.56787Z" fill="#5843E3"/>
<path fill-rule="evenodd" clip-rule="evenodd" d="M14.6476 19C14.1769 19 13.7953 18.6269 13.7953 18.1666C13.7953 15.3459 11.4482 13.0509 8.56336 13.0509H7.43664C4.55183 13.0509 2.20471 15.3459 2.20471 18.1666C2.20471 18.6269 1.82311 19 1.35235 19C0.8816 19 0.5 18.6269 0.5 18.1666C0.5 14.4266 3.61168 11.3841 7.43664 11.3841H8.56336C12.3883 11.3841 15.5 14.4266 15.5 18.1666C15.5 18.6269 15.1184 19 14.6476 19ZM7.92488 10.1131C5.07326 10.1131 2.75344 7.8448 2.75344 5.05654C2.75344 2.26828 5.07326 0 7.92488 0C10.7765 0 13.0963 2.26828 13.0963 5.05654C13.0963 7.8448 10.7765 10.1131 7.92488 10.1131ZM7.92488 1.66683C6.01341 1.66683 4.45815 3.18754 4.45815 5.05654C4.45815 6.92554 6.01341 8.44625 7.92488 8.44625C9.83636 8.44625 11.3916 6.92554 11.3916 5.05654C11.3916 3.18754 9.83636 1.66683 7.92488 1.66683ZM2.85465 5.05654C2.85465 7.79015 5.12916 10.0141 7.92488 10.0141C10.7206 10.0141 12.9951 7.79015 12.9951 5.05654C12.9951 2.32293 10.7206 0.0989584 7.92488 0.0989584C5.12916 0.0989584 2.85465 2.32293 2.85465 5.05654ZM4.35694 5.05654C4.35694 3.13289 5.95752 1.56787 7.92488 1.56787C9.89225 1.56787 11.4928 3.13289 11.4928 5.05654C11.4928 6.98019 9.89225 8.54521 7.92488 8.54521C5.95752 8.54521 4.35694 6.98019 4.35694 5.05654ZM13.8965 18.1666C13.8965 18.5722 14.2328 18.901 14.6476 18.901C15.0625 18.901 15.3988 18.5722 15.3988 18.1666C15.3988 14.4813 12.3324 11.483 8.56336 11.483H7.43664C3.66757 11.483 0.601207 14.4813 0.601207 18.1666C0.601207 18.5722 0.937495 18.901 1.35235 18.901C1.76721 18.901 2.1035 18.5722 2.1035 18.1666C2.1035 15.2912 4.49594 12.9519 7.43664 12.9519H8.56336C11.5041 12.9519 13.8965 15.2912 13.8965 18.1666Z" fill="#5843E3"/>
</svg>
