<svg width="20" height="20" viewBox="0 0 20 20" fill="none" xmlns="http://www.w3.org/2000/svg">
<g clip-path="url(#clip0)">
<path d="M20 10.0025C20 10.4975 19.593 10.9025 19.0955 10.9025H3.07538L7.16834 14.9975C7.53015 15.3575 7.53015 15.92 7.16834 16.28C6.98744 16.46 6.7613 16.55 6.53517 16.55C6.30904 16.55 6.0603 16.46 5.90201 16.28L0.271357 10.655C-0.0904523 10.295 -0.0904523 9.7325 0.271357 9.395L5.90201 3.77C6.26382 3.41 6.82914 3.41 7.19095 3.77C7.55276 4.13 7.55276 4.6925 7.19095 5.0525L3.07538 9.1025H19.0955C19.593 9.1025 20 9.5075 20 10.0025Z" fill="#191632"/>
</g>
<defs>
<clipPath id="clip0">
<rect width="20" height="20" fill="white"/>
</clipPath>
</defs>
</svg>
