<svg width="18" height="18" viewBox="0 0 18 18" fill="none" xmlns="http://www.w3.org/2000/svg">
<path fill-rule="evenodd" clip-rule="evenodd" d="M8.0999 0.899902C5.25958 0.899902 2.95705 3.16646 2.95705 5.9624V8.94646C2.95705 8.99644 2.94202 9.04529 2.91386 9.08688L1.16206 11.6735C0.991116 11.9259 0.899902 12.2225 0.899902 12.5258C0.899902 13.3745 1.59877 14.0624 2.46085 14.0624H13.7389C14.6011 14.0624 15.2999 13.3745 15.2999 12.5258C15.2999 12.2225 15.2087 11.9259 15.0377 11.6735L13.286 9.08688C13.2578 9.04529 13.2428 8.99644 13.2428 8.94646V5.9624C13.2428 3.16646 10.9402 0.899902 8.0999 0.899902ZM4.4999 5.9624C4.4999 4.00524 6.11167 2.41865 8.0999 2.41865C10.0881 2.41865 11.6999 4.00524 11.6999 5.9624V8.94646C11.6999 9.29628 11.8051 9.63826 12.0022 9.92933L13.754 12.5159C13.756 12.5188 13.757 12.5223 13.757 12.5258C13.757 12.5281 13.7565 12.5308 13.7565 12.5308L13.7559 12.5325C13.7559 12.5325 13.754 12.5363 13.7517 12.5384C13.7495 12.5406 13.7457 12.5425 13.7457 12.5425C13.7457 12.5425 13.7429 12.5437 13.7389 12.5437H2.46085C2.45693 12.5437 2.45404 12.5425 2.45404 12.5425C2.45404 12.5425 2.45026 12.5406 2.44806 12.5384C2.44587 12.5363 2.44386 12.5325 2.44386 12.5325C2.44386 12.5325 2.44276 12.5297 2.44276 12.5258C2.44276 12.5223 2.44382 12.5188 2.44579 12.5159L4.1976 9.92933C4.39471 9.63826 4.4999 9.29628 4.4999 8.94646V5.9624Z" fill="white"/>
<path d="M10.1412 15.3275C10.0149 16.3267 9.14912 17.0999 8.09989 17.0999C7.05067 17.0999 6.18492 16.3267 6.0586 15.3275C6.04107 15.1888 6.15788 15.0749 6.29989 15.0749H9.8999C10.0419 15.0749 10.1587 15.1888 10.1412 15.3275Z" fill="white"/>
<ellipse cx="15.9749" cy="1.575" rx="1.575" ry="1.575" fill="#FB3030"/>
</svg>
