<svg width="20" height="20" viewBox="0 0 20 20" fill="none" xmlns="http://www.w3.org/2000/svg">
<path fill-rule="evenodd" clip-rule="evenodd" d="M9 1C5.84409 1 3.28571 3.5184 3.28571 6.625V9.94062C3.28571 9.99615 3.26902 10.0504 3.23773 10.0966L1.29129 12.9707C1.10135 13.2511 1 13.5807 1 13.9177C1 14.8607 1.77651 15.625 2.73439 15.625H15.2656C16.2235 15.625 17 14.8607 17 13.9177C17 13.5807 16.8986 13.2511 16.7087 12.9707L14.7623 10.0966C14.731 10.0504 14.7143 9.99615 14.7143 9.94062V6.625C14.7143 3.5184 12.1559 1 9 1ZM5 6.625C5 4.45037 6.79086 2.6875 9 2.6875C11.2091 2.6875 13 4.45037 13 6.625V9.94062C13 10.3293 13.1169 10.7093 13.3359 11.0327L15.2823 13.9067C15.2846 13.9099 15.2857 13.9138 15.2857 13.9177C15.2857 13.9202 15.2852 13.9232 15.2852 13.9232L15.2845 13.9251C15.2845 13.9251 15.2823 13.9293 15.2798 13.9316C15.2774 13.9341 15.2731 13.9363 15.2731 13.9363C15.2731 13.9363 15.2699 13.9375 15.2656 13.9375H2.73439C2.73003 13.9375 2.72682 13.9363 2.72682 13.9363C2.72682 13.9363 2.72262 13.9341 2.72017 13.9316C2.71774 13.9293 2.71551 13.9251 2.71551 13.9251C2.71551 13.9251 2.71429 13.922 2.71429 13.9177C2.71429 13.9138 2.71546 13.9099 2.71766 13.9067L4.6641 11.0327C4.88312 10.7093 5 10.3293 5 9.94062V6.625Z" fill="#191632"/>
<path d="M11.2681 17.0307C11.1277 18.1408 10.1658 19 8.99999 19C7.83419 19 6.87224 18.1408 6.73189 17.0307C6.7124 16.8766 6.8422 16.75 6.99999 16.75H11C11.1578 16.75 11.2875 16.8766 11.2681 17.0307Z" fill="#191632"/>
<circle cx="17.75" cy="1.75" r="1.75" fill="#FB3030"/>
</svg>
