<svg width="20" height="20" viewBox="0 0 20 20" fill="none" xmlns="http://www.w3.org/2000/svg">
<path fill-rule="evenodd" clip-rule="evenodd" d="M10 1C6.84409 1 4.28571 3.5184 4.28571 6.625V9.94062C4.28571 9.99615 4.26902 10.0504 4.23773 10.0966L2.29129 12.9707C2.10135 13.2511 2 13.5807 2 13.9177C2 14.8607 2.77651 15.625 3.73439 15.625H16.2656C17.2235 15.625 18 14.8607 18 13.9177C18 13.5807 17.8986 13.2511 17.7087 12.9707L15.7623 10.0966C15.731 10.0504 15.7143 9.99615 15.7143 9.94062V6.625C15.7143 3.5184 13.1559 1 10 1ZM6 6.625C6 4.45037 7.79086 2.6875 10 2.6875C12.2091 2.6875 14 4.45037 14 6.625V9.94062C14 10.3293 14.1169 10.7093 14.3359 11.0327L16.2823 13.9067C16.2846 13.9099 16.2857 13.9138 16.2857 13.9177C16.2857 13.9202 16.2852 13.9232 16.2852 13.9232L16.2845 13.9251C16.2845 13.9251 16.2823 13.9293 16.2798 13.9316C16.2774 13.9341 16.2731 13.9363 16.2731 13.9363C16.2731 13.9363 16.2699 13.9375 16.2656 13.9375H3.73439C3.73003 13.9375 3.72682 13.9363 3.72682 13.9363C3.72682 13.9363 3.72262 13.9341 3.72017 13.9316C3.71774 13.9293 3.71551 13.9251 3.71551 13.9251C3.71551 13.9251 3.71429 13.922 3.71429 13.9177C3.71429 13.9138 3.71546 13.9099 3.71766 13.9067L5.6641 11.0327C5.88312 10.7093 6 10.3293 6 9.94062V6.625Z" fill="#191632"/>
<path d="M12.2681 17.0307C12.1277 18.1408 11.1658 19 9.99999 19C8.83419 19 7.87224 18.1408 7.73189 17.0307C7.7124 16.8766 7.8422 16.75 7.99999 16.75H12C12.1578 16.75 12.2875 16.8766 12.2681 17.0307Z" fill="#191632"/>
</svg>
