<svg width="20" height="20" viewBox="0 0 20 20" fill="none" xmlns="http://www.w3.org/2000/svg">
<path fill-rule="evenodd" clip-rule="evenodd" d="M4.16675 4.16671C3.70651 4.16671 3.33341 4.5398 3.33341 5.00004V16.6667C3.33341 17.1269 3.70651 17.5 4.16675 17.5H15.8334C16.2937 17.5 16.6667 17.1269 16.6667 16.6667V5.00004C16.6667 4.5398 16.2937 4.16671 15.8334 4.16671H4.16675ZM1.66675 5.00004C1.66675 3.61933 2.78604 2.50004 4.16675 2.50004H15.8334C17.2141 2.50004 18.3334 3.61933 18.3334 5.00004V16.6667C18.3334 18.0474 17.2141 19.1667 15.8334 19.1667H4.16675C2.78604 19.1667 1.66675 18.0474 1.66675 16.6667V5.00004Z" fill="#191632"/>
<path fill-rule="evenodd" clip-rule="evenodd" d="M13.3334 0.833374C13.7937 0.833374 14.1667 1.20647 14.1667 1.66671V5.00004C14.1667 5.46028 13.7937 5.83337 13.3334 5.83337C12.8732 5.83337 12.5001 5.46028 12.5001 5.00004V1.66671C12.5001 1.20647 12.8732 0.833374 13.3334 0.833374Z" fill="#191632"/>
<path fill-rule="evenodd" clip-rule="evenodd" d="M6.66675 0.833374C7.12699 0.833374 7.50008 1.20647 7.50008 1.66671V5.00004C7.50008 5.46028 7.12699 5.83337 6.66675 5.83337C6.20651 5.83337 5.83342 5.46028 5.83342 5.00004V1.66671C5.83342 1.20647 6.20651 0.833374 6.66675 0.833374Z" fill="#191632"/>
<path fill-rule="evenodd" clip-rule="evenodd" d="M1.66675 8.33337C1.66675 7.87314 2.03984 7.50004 2.50008 7.50004H17.5001C17.9603 7.50004 18.3334 7.87314 18.3334 8.33337C18.3334 8.79361 17.9603 9.16671 17.5001 9.16671H2.50008C2.03984 9.16671 1.66675 8.79361 1.66675 8.33337Z" fill="#191632"/>
</svg>
