<svg width="20" height="20" viewBox="0 0 20 20" fill="none" xmlns="http://www.w3.org/2000/svg">
<path d="M16.2997 4.81527H15.1477L14.8597 3.87685C14.673 3.32622 14.3267 2.84976 13.8687 2.51348C13.4108 2.17721 12.8639 1.99777 12.3038 2.00002H7.69586C7.13027 2.00112 6.57929 2.18741 6.12068 2.53258C5.66208 2.87775 5.31902 3.36437 5.13991 3.92377L4.85192 4.86219H3.69994C2.98387 4.86219 2.29713 5.15879 1.7908 5.68675C1.28446 6.21471 1 6.93078 1 7.67743V15.1848C1 15.9314 1.28446 16.6475 1.7908 17.1754C2.29713 17.7034 2.98387 18 3.69994 18H16.2997C17.0158 18 17.7025 17.7034 18.2088 17.1754C18.7152 16.6475 18.9996 15.9314 18.9996 15.1848V7.67743C19.0056 7.3038 18.9402 6.93267 18.8072 6.58567C18.6742 6.23868 18.4762 5.92276 18.2249 5.65635C17.9736 5.38994 17.6739 5.17837 17.3434 5.03396C17.0129 4.88956 16.6581 4.81521 16.2997 4.81527ZM17.1997 15.1378C17.1997 15.3867 17.1048 15.6254 16.9361 15.8014C16.7673 15.9774 16.5384 16.0762 16.2997 16.0762H3.69994C3.46125 16.0762 3.23234 15.9774 3.06356 15.8014C2.89478 15.6254 2.79996 15.3867 2.79996 15.1378V7.63051C2.79996 7.38163 2.89478 7.14294 3.06356 6.96695C3.23234 6.79097 3.46125 6.6921 3.69994 6.6921H5.49991C5.69616 6.70278 5.89038 6.64618 6.05289 6.53096C6.2154 6.41573 6.33727 6.24821 6.39989 6.05398L6.88588 4.51497C6.94625 4.32858 7.06128 4.1667 7.2147 4.05219C7.36813 3.93768 7.55218 3.87634 7.74086 3.87685H12.3488C12.5374 3.87634 12.7215 3.93768 12.8749 4.05219C13.0283 4.1667 13.1434 4.32858 13.2037 4.51497L13.6897 6.05398C13.7475 6.23297 13.8557 6.38964 14.0002 6.50349C14.1447 6.61733 14.3188 6.68307 14.4997 6.6921H16.2997C16.5384 6.6921 16.7673 6.79097 16.9361 6.96695C17.1048 7.14294 17.1997 7.38163 17.1997 7.63051V15.1378ZM9.99981 6.6921C9.28782 6.6921 8.59181 6.91225 7.9998 7.3247C7.4078 7.73716 6.94638 8.3234 6.67392 9.00929C6.40145 9.69519 6.33015 10.4499 6.46906 11.1781C6.60796 11.9062 6.95082 12.575 7.45428 13.1C7.95774 13.625 8.59918 13.9825 9.2975 14.1273C9.99582 14.2721 10.7196 14.1978 11.3774 13.9137C12.0352 13.6296 12.5975 13.1485 12.993 12.5312C13.3886 11.9139 13.5997 11.1882 13.5997 10.4458C13.5997 9.45022 13.2205 8.49547 12.5453 7.79152C11.8702 7.08757 10.9546 6.6921 9.99981 6.6921ZM9.99981 12.3226C9.64381 12.3226 9.29581 12.2125 8.99981 12.0063C8.7038 11.8001 8.4731 11.5069 8.33686 11.164C8.20063 10.821 8.16498 10.4437 8.23444 10.0796C8.30389 9.71554 8.47532 9.38112 8.72705 9.11864C8.97878 8.85616 9.2995 8.67741 9.64866 8.60499C9.99782 8.53257 10.3597 8.56974 10.6886 8.71179C11.0175 8.85385 11.2986 9.0944 11.4964 9.40305C11.6942 9.71169 11.7998 10.0746 11.7998 10.4458C11.7998 10.9435 11.6101 11.4209 11.2726 11.7729C10.935 12.1249 10.4772 12.3226 9.99981 12.3226Z" fill="#191632"/>
</svg>
