<svg width="20" height="20" viewBox="0 0 20 20" fill="none" xmlns="http://www.w3.org/2000/svg">
<path fill-rule="evenodd" clip-rule="evenodd" d="M17.256 4.41075C17.5814 4.73619 17.5814 5.26383 17.256 5.58926L8.0893 14.7559C7.76387 15.0814 7.23623 15.0814 6.91079 14.7559L2.74413 10.5893C2.41869 10.2638 2.41869 9.73619 2.74413 9.41075C3.06956 9.08532 3.5972 9.08532 3.92264 9.41075L7.50005 12.9882L16.0775 4.41075C16.4029 4.08532 16.9305 4.08532 17.256 4.41075Z" fill="#191632"/>
<path fill-rule="evenodd" clip-rule="evenodd" d="M17.3974 4.26933C17.8009 4.67287 17.8009 5.32714 17.3974 5.73069L8.23073 14.8974C7.82718 15.3009 7.17291 15.3009 6.76937 14.8974L2.60271 10.7307C2.19916 10.3271 2.19916 9.67287 2.60271 9.26933C3.00625 8.86579 3.66052 8.86579 4.06406 9.26933L7.50005 12.7053L15.936 4.26933C16.3396 3.86579 16.9938 3.86579 17.3974 4.26933ZM7.50005 12.9882L3.92264 9.41075C3.5972 9.08532 3.06956 9.08532 2.74413 9.41075C2.41869 9.73619 2.41869 10.2638 2.74413 10.5893L6.91079 14.7559C7.23623 15.0814 7.76387 15.0814 8.0893 14.7559L17.256 5.58926C17.5814 5.26383 17.5814 4.73619 17.256 4.41075C16.9305 4.08532 16.4029 4.08532 16.0775 4.41075L7.50005 12.9882Z" fill="#191632"/>
</svg>
