<svg width="20" height="20" viewBox="0 0 20 20" fill="none" xmlns="http://www.w3.org/2000/svg">
<path fill-rule="evenodd" clip-rule="evenodd" d="M9.99992 2.50001C5.85778 2.50001 2.49992 5.85787 2.49992 10C2.49992 14.1421 5.85778 17.5 9.99992 17.5C14.1421 17.5 17.4999 14.1421 17.4999 10C17.4999 5.85787 14.1421 2.50001 9.99992 2.50001ZM0.833252 10C0.833252 4.9374 4.93731 0.833344 9.99992 0.833344C15.0625 0.833344 19.1666 4.9374 19.1666 10C19.1666 15.0626 15.0625 19.1667 9.99992 19.1667C4.93731 19.1667 0.833252 15.0626 0.833252 10Z" fill="#191632"/>
<path fill-rule="evenodd" clip-rule="evenodd" d="M9.16675 6.66668C9.16675 6.20644 9.53984 5.83334 10.0001 5.83334H17.6417C18.102 5.83334 18.4751 6.20644 18.4751 6.66668C18.4751 7.12691 18.102 7.50001 17.6417 7.50001H10.0001C9.53984 7.50001 9.16675 7.12691 9.16675 6.66668Z" fill="#191632"/>
<path fill-rule="evenodd" clip-rule="evenodd" d="M9.99992 7.50001C8.61921 7.50001 7.49992 8.6193 7.49992 10C7.49992 11.3807 8.61921 12.5 9.99992 12.5C11.3806 12.5 12.4999 11.3807 12.4999 10C12.4999 8.6193 11.3806 7.50001 9.99992 7.50001ZM5.83325 10C5.83325 7.69882 7.69873 5.83334 9.99992 5.83334C12.3011 5.83334 14.1666 7.69882 14.1666 10C14.1666 12.3012 12.3011 14.1667 9.99992 14.1667C7.69873 14.1667 5.83325 12.3012 5.83325 10Z" fill="#191632"/>
<path fill-rule="evenodd" clip-rule="evenodd" d="M13.2997 10.9448C13.6983 11.1748 13.8351 11.6844 13.6051 12.083L9.78848 18.6997C9.55852 19.0984 9.04891 19.2351 8.65024 19.0052C8.25158 18.7752 8.11481 18.2656 8.34478 17.8669L12.1614 11.2503C12.3914 10.8516 12.901 10.7149 13.2997 10.9448Z" fill="#191632"/>
<path fill-rule="evenodd" clip-rule="evenodd" d="M2.87466 4.32854C3.27311 4.0982 3.78284 4.23448 4.01318 4.63293L7.83818 11.2496C8.06852 11.648 7.93224 12.1578 7.53379 12.3881C7.13534 12.6185 6.62561 12.4822 6.39527 12.0837L2.57027 5.46706C2.33993 5.06861 2.47621 4.55887 2.87466 4.32854Z" fill="#191632"/>
</svg>
