<svg width="20" height="20" viewBox="0 0 20 20" fill="none" xmlns="http://www.w3.org/2000/svg">
<path fill-rule="evenodd" clip-rule="evenodd" d="M9.99992 2.49999C5.85778 2.49999 2.49992 5.85786 2.49992 10C2.49992 14.1421 5.85778 17.5 9.99992 17.5C14.1421 17.5 17.4999 14.1421 17.4999 10C17.4999 5.85786 14.1421 2.49999 9.99992 2.49999ZM0.833252 10C0.833252 4.93738 4.93731 0.833328 9.99992 0.833328C15.0625 0.833328 19.1666 4.93738 19.1666 10C19.1666 15.0626 15.0625 19.1667 9.99992 19.1667C4.93731 19.1667 0.833252 15.0626 0.833252 10Z" fill="#191632"/>
<path fill-rule="evenodd" clip-rule="evenodd" d="M13.0892 6.91074C13.4146 7.23618 13.4146 7.76381 13.0892 8.08925L8.08917 13.0893C7.76374 13.4147 7.2361 13.4147 6.91066 13.0893C6.58523 12.7638 6.58523 12.2362 6.91066 11.9107L11.9107 6.91074C12.2361 6.5853 12.7637 6.5853 13.0892 6.91074Z" fill="#191632"/>
<path fill-rule="evenodd" clip-rule="evenodd" d="M6.91066 6.91074C7.2361 6.5853 7.76374 6.5853 8.08917 6.91074L13.0892 11.9107C13.4146 12.2362 13.4146 12.7638 13.0892 13.0893C12.7637 13.4147 12.2361 13.4147 11.9107 13.0893L6.91066 8.08925C6.58523 7.76381 6.58523 7.23618 6.91066 6.91074Z" fill="#191632"/>
</svg>
