<svg width="20" height="20" viewBox="0 0 20 20" fill="none" xmlns="http://www.w3.org/2000/svg">
<path d="M3.82666 7.53158C3.67959 7.67807 3.5882 7.87055 3.56803 8.07631C3.54786 8.28207 3.60016 8.4884 3.71603 8.66025C3.8319 8.83209 4.0042 8.95884 4.20364 9.01895C4.40308 9.07907 4.61735 9.06884 4.81005 8.99C4.91969 8.94136 5.02033 8.87483 5.10777 8.79316C5.18892 8.71071 5.25325 8.61349 5.29723 8.50684C5.3488 8.39783 5.37354 8.27824 5.3694 8.15789C5.3684 7.92317 5.27444 7.69823 5.10777 7.53158C5.0239 7.44772 4.92411 7.38115 4.81417 7.33573C4.70424 7.2903 4.58631 7.26692 4.46722 7.26692C4.34812 7.26692 4.2302 7.2903 4.12026 7.33573C4.01032 7.38115 3.91053 7.44772 3.82666 7.53158ZM4.46722 2.78947C4.70649 2.78947 4.93596 2.88374 5.10516 3.05154C5.27435 3.21933 5.3694 3.44691 5.3694 3.68421C5.3694 3.92151 5.27435 4.14909 5.10516 4.31688C4.93596 4.48468 4.70649 4.57895 4.46722 4.57895C4.22794 4.57895 3.99847 4.67321 3.82927 4.84101C3.66008 5.00881 3.56503 5.23638 3.56503 5.47368C3.56503 5.71098 3.66008 5.93856 3.82927 6.10636C3.99847 6.27415 4.22794 6.36842 4.46722 6.36842C4.94224 6.36812 5.40882 6.24383 5.82007 6.00805C6.23132 5.77227 6.57276 5.4333 6.81008 5.0252C7.04739 4.6171 7.17223 4.15424 7.17204 3.68313C7.17184 3.21203 7.04664 2.74927 6.80899 2.34136C6.57135 1.93345 6.22964 1.59475 5.81819 1.35929C5.40675 1.12384 4.94007 0.999925 4.46505 1C3.99002 1.00008 3.52338 1.12414 3.11201 1.35972C2.70065 1.59531 2.35905 1.93412 2.12153 2.3421C2.06188 2.44422 2.02319 2.55704 2.00769 2.67405C1.99219 2.79106 2.00018 2.90996 2.03121 3.0239C2.06223 3.13783 2.11568 3.24456 2.18847 3.33792C2.26127 3.43128 2.35196 3.50944 2.45534 3.56789C2.6625 3.68454 2.90777 3.7152 3.13763 3.65318C3.3675 3.59116 3.5633 3.4415 3.68231 3.23684C3.7618 3.1003 3.87626 2.98701 4.01409 2.90845C4.15192 2.82989 4.30824 2.78885 4.46722 2.78947ZM15.2934 3.68421H9.88033C9.64105 3.68421 9.41158 3.77848 9.24239 3.94627C9.07319 4.11407 8.97814 4.34165 8.97814 4.57895C8.97814 4.81625 9.07319 5.04383 9.24239 5.21162C9.41158 5.37942 9.64105 5.47368 9.88033 5.47368H15.2934C15.5327 5.47368 15.7622 5.56795 15.9314 5.73575C16.1006 5.90354 16.1956 6.13112 16.1956 6.36842V15.0653L14.7792 13.7679C14.6128 13.6134 14.3936 13.5271 14.1657 13.5263H6.27159C6.03231 13.5263 5.80284 13.432 5.63365 13.2643C5.46445 13.0965 5.3694 12.8689 5.3694 12.6316V11.7368C5.3694 11.4995 5.27435 11.272 5.10516 11.1042C4.93596 10.9364 4.70649 10.8421 4.46722 10.8421C4.22794 10.8421 3.99847 10.9364 3.82927 11.1042C3.66008 11.272 3.56503 11.4995 3.56503 11.7368V12.6316C3.56503 13.3435 3.85018 14.0262 4.35776 14.5296C4.86534 15.033 5.55376 15.3158 6.27159 15.3158H13.8139L16.5204 17.7584C16.6776 17.9048 16.8824 17.9905 17.0978 18C17.2215 17.9987 17.3439 17.9744 17.4587 17.9284C17.6201 17.8586 17.7573 17.7434 17.8535 17.5971C17.9497 17.4509 18.0006 17.2799 18 17.1053V6.36842C18 5.65652 17.7148 4.97378 17.2073 4.4704C16.6997 3.96701 16.0113 3.68421 15.2934 3.68421Z" fill="#191632"/>
</svg>
