<svg width="20" height="20" viewBox="0 0 20 20" fill="none" xmlns="http://www.w3.org/2000/svg">
<path d="M12.4375 11.4056C12.0389 11.4056 11.725 11.7391 11.725 12.1389C11.725 12.5387 12.0389 12.8722 12.4375 12.8722H15.0625C15.4611 12.8722 15.775 12.5387 15.775 12.1389C15.775 11.7391 15.4611 11.4056 15.0625 11.4056H12.4375ZM2.3125 2.85C1.49969 2.85 0.85 3.53174 0.85 4.36111V15.6389C0.85 16.4683 1.49969 17.15 2.3125 17.15H17.6875C18.5003 17.15 19.15 16.4683 19.15 15.6389V4.36111C19.15 3.53174 18.5003 2.85 17.6875 2.85H2.3125ZM2.275 4.36111C2.275 4.33138 2.29688 4.31667 2.3125 4.31667H17.6875C17.7031 4.31667 17.725 4.33138 17.725 4.36111V7.12778H2.275V4.36111ZM2.275 15.6389V8.59445H17.725V15.6389C17.725 15.6686 17.7031 15.6833 17.6875 15.6833H2.3125C2.29688 15.6833 2.275 15.6686 2.275 15.6389Z" fill="#191632" stroke="#191632" stroke-width="0.3"/>
</svg>
