<svg width="74" height="74" viewBox="0 0 74 74" fill="none" xmlns="http://www.w3.org/2000/svg">
<path d="M40.1057 53.4967C39.2015 54.5302 39.2015 56.203 40.1057 57.2337C41.01 58.2671 42.4737 58.2671 43.3756 57.2337L59.3295 38.9981C59.8106 38.4482 60.0164 37.7162 59.9839 36.9972C60.0164 36.2758 59.8105 35.5464 59.3295 34.9967L43.3756 16.7637C42.4737 15.7303 41.0076 15.7303 40.1057 16.7637C39.2015 17.797 39.2015 19.4699 40.1057 20.5006L52.2301 34.357H2.3125C1.036 34.3571 0 35.5411 0 37C0 38.4589 1.036 39.6429 2.3125 39.6429H52.2301L40.1057 53.4967ZM64.75 0H18.5C13.3917 0 9.25 4.73337 9.25 10.5714V21.1429H13.875V10.5714C13.875 7.65371 15.9447 5.28571 18.5 5.28571H64.75C67.3053 5.28571 69.375 7.65371 69.375 10.5714V63.4286C69.375 66.3463 67.3053 68.7143 64.75 68.7143H18.5C15.9447 68.7143 13.875 66.3489 13.875 63.4286V52.8571H9.25V63.4286C9.25 69.2666 13.3917 74 18.5 74H64.75C69.8583 74 74 69.2666 74 63.4286V10.5714C74 4.73337 69.8583 0 64.75 0Z" fill="#6BE42B"/>
</svg>
