<svg width="20" height="20" viewBox="0 0 20 20" fill="none" xmlns="http://www.w3.org/2000/svg">
<path d="M13.9673 17.6958V14.1436C13.9673 13.814 13.6999 13.5466 13.3703 13.5466C13.0408 13.5466 12.7733 13.814 12.7733 14.1436V17.6958C12.7733 18.4991 12.1655 18.806 11.4178 18.806H3.65629C2.94346 18.806 2.02704 18.5367 2.02704 17.6958V2.84806C2.02704 2.04209 2.88166 1.19403 3.65629 1.19403H11.4178C12.1915 1.19403 12.7733 2.05642 12.7733 2.84806V6.38239C12.7733 6.71194 13.0408 6.9794 13.3703 6.9794C13.6999 6.9794 13.9673 6.71194 13.9673 6.38239V2.84806C13.9673 1.39134 12.8554 0 11.4178 0H3.65629C2.23181 0 0.833008 1.39134 0.833008 2.84806V17.6958C0.833008 19.074 2.13181 20 3.65629 20H11.4178C12.9563 20 13.9673 19.074 13.9673 17.6958Z" fill="black"/>
<path d="M19.0508 9.61121L7.31768 9.61121L10.0559 6.86903C10.289 6.6362 10.289 6.22963 10.0562 5.9965C9.93949 5.87978 9.78695 5.80724 9.63382 5.80724C9.48098 5.80724 9.32845 5.85829 9.21173 5.975L5.38636 9.7962C5.27442 9.90814 5.21143 10.0583 5.21143 10.2165C5.21143 10.3747 5.27442 10.5257 5.38636 10.6377L5.56785 10.8189C5.60904 10.8786 5.66098 10.9305 5.72098 10.9714L9.21143 14.4619C9.44457 14.695 9.82277 14.695 10.0556 14.4619C10.2887 14.2287 10.2887 13.9078 10.0556 13.6744L7.31768 10.9714L18.8947 10.9714C19.2243 10.9714 19.3302 10.7741 19.3302 10.4445C19.3302 10.115 19.3803 9.61121 19.0508 9.61121Z" fill="black"/>
</svg>
