<svg width="20" height="20" viewBox="0 0 20 20" fill="none" xmlns="http://www.w3.org/2000/svg">
<path fill-rule="evenodd" clip-rule="evenodd" d="M1.66675 2.49999C1.66675 2.03975 2.03984 1.66666 2.50008 1.66666H8.33342C8.79365 1.66666 9.16675 2.03975 9.16675 2.49999V8.33332C9.16675 8.79356 8.79365 9.16666 8.33342 9.16666H2.50008C2.03984 9.16666 1.66675 8.79356 1.66675 8.33332V2.49999ZM3.33341 3.33332V7.49999H7.50008V3.33332H3.33341Z" fill="#191632"/>
<path fill-rule="evenodd" clip-rule="evenodd" d="M10.8334 2.49999C10.8334 2.03975 11.2065 1.66666 11.6668 1.66666H17.5001C17.9603 1.66666 18.3334 2.03975 18.3334 2.49999V8.33332C18.3334 8.79356 17.9603 9.16666 17.5001 9.16666H11.6668C11.2065 9.16666 10.8334 8.79356 10.8334 8.33332V2.49999ZM12.5001 3.33332V7.49999H16.6668V3.33332H12.5001Z" fill="#191632"/>
<path fill-rule="evenodd" clip-rule="evenodd" d="M10.8334 11.6667C10.8334 11.2064 11.2065 10.8333 11.6668 10.8333H17.5001C17.9603 10.8333 18.3334 11.2064 18.3334 11.6667V17.5C18.3334 17.9602 17.9603 18.3333 17.5001 18.3333H11.6668C11.2065 18.3333 10.8334 17.9602 10.8334 17.5V11.6667ZM12.5001 12.5V16.6667H16.6668V12.5H12.5001Z" fill="#191632"/>
<path fill-rule="evenodd" clip-rule="evenodd" d="M1.66675 11.6667C1.66675 11.2064 2.03984 10.8333 2.50008 10.8333H8.33342C8.79365 10.8333 9.16675 11.2064 9.16675 11.6667V17.5C9.16675 17.9602 8.79365 18.3333 8.33342 18.3333H2.50008C2.03984 18.3333 1.66675 17.9602 1.66675 17.5V11.6667ZM3.33341 12.5V16.6667H7.50008V12.5H3.33341Z" fill="#191632"/>
</svg>
