<svg width="20" height="20" viewBox="0 0 20 20" fill="none" xmlns="http://www.w3.org/2000/svg">
<path d="M10.0001 1.66667C7.86374 1.67277 5.81132 2.4991 4.26675 3.97501V2.50001C4.26675 2.27899 4.17895 2.06703 4.02267 1.91075C3.86639 1.75447 3.65443 1.66667 3.43341 1.66667C3.2124 1.66667 3.00044 1.75447 2.84416 1.91075C2.68788 2.06703 2.60008 2.27899 2.60008 2.50001V6.25001C2.60008 6.47102 2.68788 6.68298 2.84416 6.83926C3.00044 6.99554 3.2124 7.08334 3.43341 7.08334H7.18341C7.40443 7.08334 7.61639 6.99554 7.77267 6.83926C7.92895 6.68298 8.01675 6.47102 8.01675 6.25001C8.01675 6.02899 7.92895 5.81703 7.77267 5.66075C7.61639 5.50447 7.40443 5.41667 7.18341 5.41667H5.18341C6.2549 4.29697 7.683 3.58555 9.22219 3.40473C10.7614 3.22391 12.3155 3.58498 13.6173 4.42588C14.9191 5.26677 15.8873 6.53493 16.3554 8.01233C16.8234 9.48973 16.7622 11.084 16.1821 12.5212C15.602 13.9583 14.5394 15.1484 13.1769 15.8869C11.8144 16.6254 10.2372 16.8662 8.71638 16.5678C7.1956 16.2694 5.8263 15.4505 4.84391 14.2518C3.86151 13.0532 3.3274 11.5498 3.33341 10C3.33341 9.77899 3.24562 9.56703 3.08934 9.41075C2.93306 9.25447 2.7211 9.16667 2.50008 9.16667C2.27907 9.16667 2.06711 9.25447 1.91083 9.41075C1.75455 9.56703 1.66675 9.77899 1.66675 10C1.66675 11.6482 2.15549 13.2593 3.07117 14.6298C3.98685 16.0002 5.28834 17.0683 6.81105 17.699C8.33377 18.3297 10.0093 18.4948 11.6258 18.1732C13.2423 17.8517 14.7272 17.058 15.8926 15.8926C17.0581 14.7271 17.8517 13.2423 18.1733 11.6258C18.4948 10.0092 18.3298 8.33369 17.6991 6.81098C17.0683 5.28826 16.0002 3.98677 14.6298 3.07109C13.2594 2.15541 11.6483 1.66667 10.0001 1.66667ZM10.0001 6.66667C9.77907 6.66667 9.56711 6.75447 9.41083 6.91075C9.25455 7.06703 9.16675 7.27899 9.16675 7.50001V10C9.16675 10.221 9.25455 10.433 9.41083 10.5893C9.56711 10.7455 9.77907 10.8333 10.0001 10.8333H11.6667C11.8878 10.8333 12.0997 10.7455 12.256 10.5893C12.4123 10.433 12.5001 10.221 12.5001 10C12.5001 9.77899 12.4123 9.56703 12.256 9.41075C12.0997 9.25447 11.8878 9.16667 11.6667 9.16667H10.8334V7.50001C10.8334 7.27899 10.7456 7.06703 10.5893 6.91075C10.4331 6.75447 10.2211 6.66667 10.0001 6.66667Z" fill="#191632"/>
</svg>
