<svg width="20" height="20" viewBox="0 0 20 20" fill="none" xmlns="http://www.w3.org/2000/svg">
<path d="M18.0585 10.2306L18.0584 10.2306L18.0605 10.2324C18.2339 10.3841 18.4518 10.4719 18.6715 10.4719C18.8903 10.4719 19.1304 10.3847 19.3056 10.2095L19.3067 10.2083C19.6339 9.85939 19.6357 9.29111 19.2842 8.96118C19.2841 8.96106 19.2839 8.96094 19.2838 8.96081L10.613 0.496476L10.613 0.496469L10.6123 0.495778C10.2627 0.168051 9.73728 0.168051 9.38771 0.495778L9.3877 0.495771L9.38698 0.496476L0.715474 8.96151L0.715048 8.96193C0.365366 9.31162 0.365368 9.85858 0.693272 10.2083L0.693253 10.2084L0.694394 10.2095C1.04408 10.5592 1.59103 10.5592 1.94079 10.2313L1.9408 10.2313L1.94154 10.2306L10 2.35711L18.0585 10.2306ZM16.9046 18.474V10.4013C16.9046 9.91942 16.5106 9.5254 16.0288 9.5254C15.5469 9.5254 15.1529 9.91942 15.1529 10.4013V17.5981H12.6721V13.2298C12.6721 12.6034 12.1542 12.0856 11.5278 12.0856H8.45152C7.82516 12.0856 7.30726 12.6034 7.30726 13.2298V17.5981H4.82646V10.4013C4.82646 9.91942 4.43243 9.5254 3.9506 9.5254C3.46876 9.5254 3.07474 9.91942 3.07474 10.4013V18.474C3.07474 18.9558 3.46876 19.3499 3.9506 19.3499H8.18312C8.66495 19.3499 9.05897 18.9558 9.05897 18.474V13.8373H10.9204V18.474C10.9204 18.9558 11.3144 19.3499 11.7962 19.3499H16.0288C16.5321 19.3499 16.9046 18.955 16.9046 18.474Z" fill="#191632" stroke="#191632" stroke-width="0.1"/>
</svg>
