<svg width="20" height="20" viewBox="0 0 20 20" fill="none" xmlns="http://www.w3.org/2000/svg">
<path fill-rule="evenodd" clip-rule="evenodd" d="M2.96875 3.71429C2.81342 3.71429 2.6875 3.84221 2.6875 4V16C2.6875 16.1578 2.81342 16.2857 2.96875 16.2857H4.02723C4.03765 16.2739 4.04845 16.2623 4.05963 16.251L10.8967 9.30537C11.6385 8.55178 12.8317 8.5215 13.6097 9.23652L17.3125 12.6399V4C17.3125 3.84221 17.1866 3.71429 17.0312 3.71429H2.96875ZM17.0312 16.2857H6.41188L12.0899 10.5176C12.1959 10.4099 12.3663 10.4056 12.4775 10.5077L17.3125 14.9517V16C17.3125 16.1578 17.1866 16.2857 17.0312 16.2857ZM19 16V14.5749V14.5682V4C19 2.89543 18.1186 2 17.0312 2H2.96875C1.88144 2 1 2.89543 1 4V16C1 17.1046 1.88144 18 2.96875 18H17.0312C18.1186 18 19 17.1046 19 16ZM7.1875 7.71429C7.1875 8.02987 6.93566 8.28571 6.625 8.28571C6.31434 8.28571 6.0625 8.02987 6.0625 7.71429C6.0625 7.3987 6.31434 7.14286 6.625 7.14286C6.93566 7.14286 7.1875 7.3987 7.1875 7.71429ZM8.875 7.71429C8.875 8.97665 7.86764 10 6.625 10C5.38236 10 4.375 8.97665 4.375 7.71429C4.375 6.45192 5.38236 5.42857 6.625 5.42857C7.86764 5.42857 8.875 6.45192 8.875 7.71429Z" fill="#191632"/>
</svg>
