<svg width="20" height="20" viewBox="0 0 20 20" fill="none" xmlns="http://www.w3.org/2000/svg">
<path d="M17.5001 5.83334H6.66675C6.16675 5.83334 5.83342 5.50001 5.83342 5.00001C5.83342 4.50001 6.16675 4.16668 6.66675 4.16668H17.5001C18.0001 4.16668 18.3334 4.50001 18.3334 5.00001C18.3334 5.50001 18.0001 5.83334 17.5001 5.83334Z" fill="#191632"/>
<path d="M17.5001 10.8333H6.66675C6.16675 10.8333 5.83342 10.5 5.83342 10C5.83342 9.50001 6.16675 9.16668 6.66675 9.16668H17.5001C18.0001 9.16668 18.3334 9.50001 18.3334 10C18.3334 10.5 18.0001 10.8333 17.5001 10.8333Z" fill="#191632"/>
<path d="M17.5001 15.8333H6.66675C6.16675 15.8333 5.83342 15.5 5.83342 15C5.83342 14.5 6.16675 14.1667 6.66675 14.1667H17.5001C18.0001 14.1667 18.3334 14.5 18.3334 15C18.3334 15.5 18.0001 15.8333 17.5001 15.8333Z" fill="#191632"/>
<path d="M2.50008 5.83334C2.41675 5.83334 2.41675 5.83334 2.33341 5.83334C2.25008 5.83334 2.25008 5.83334 2.16675 5.75001C2.08341 5.75001 2.08341 5.66668 2.00008 5.66668C1.91675 5.66668 1.91675 5.58334 1.91675 5.58334C1.83341 5.50001 1.75008 5.41668 1.75008 5.33334C1.66675 5.25001 1.66675 5.08334 1.66675 5.00001C1.66675 4.91668 1.66675 4.75001 1.75008 4.66668C1.83341 4.58334 1.83341 4.50001 1.91675 4.41668C2.16675 4.16668 2.50008 4.08334 2.83341 4.25001C2.91675 4.33334 3.00008 4.33334 3.08341 4.41668C3.25008 4.58334 3.33341 4.75001 3.33341 5.00001C3.33341 5.25001 3.25008 5.41668 3.08341 5.58334C2.91675 5.75001 2.75008 5.83334 2.50008 5.83334Z" fill="#191632"/>
<path d="M2.50008 10.8333C2.25008 10.8333 2.08341 10.75 1.91675 10.5833C1.75008 10.4167 1.66675 10.25 1.66675 10C1.66675 9.91668 1.66675 9.91668 1.66675 9.83334C1.66675 9.75001 1.66675 9.75001 1.75008 9.66668C1.75008 9.58334 1.83341 9.58334 1.83341 9.50001C1.83341 9.41668 1.91675 9.41668 1.91675 9.41668C2.00008 9.33334 2.08341 9.25001 2.16675 9.25001C2.50008 9.08334 2.83341 9.16668 3.08341 9.41668L3.16675 9.50001C3.16675 9.58334 3.25008 9.58334 3.25008 9.66668C3.25008 9.75001 3.25008 9.75001 3.33341 9.83334C3.33341 9.91668 3.33341 9.91668 3.33341 10C3.33341 10.25 3.25008 10.4167 3.08341 10.5833C2.91675 10.75 2.75008 10.8333 2.50008 10.8333Z" fill="#191632"/>
<path d="M2.50008 15.8333C2.25008 15.8333 2.08341 15.75 1.91675 15.5833C1.75008 15.4167 1.66675 15.25 1.66675 15C1.66675 14.9167 1.66675 14.75 1.75008 14.6667C1.83341 14.5833 1.83341 14.5 1.91675 14.4167C2.25008 14.0833 2.75008 14.0833 3.08341 14.4167C3.25008 14.5833 3.33341 14.75 3.33341 15C3.33341 15.25 3.25008 15.4167 3.08341 15.5833C2.91675 15.75 2.75008 15.8333 2.50008 15.8333Z" fill="#191632"/>
</svg>
