<svg width="20" height="20" viewBox="0 0 20 20" fill="none" xmlns="http://www.w3.org/2000/svg">
<path fill-rule="evenodd" clip-rule="evenodd" d="M14.352 4.54026C14.9236 5.09476 15.3771 5.7531 15.6864 6.47768C15.9958 7.20225 16.155 7.97887 16.155 8.76316C16.155 9.54746 15.9958 10.3241 15.6864 11.0486C15.3771 11.7732 14.9236 12.4316 14.352 12.9861L10 17.2066L5.648 12.9849C5.07649 12.4304 4.62314 11.7719 4.31385 11.0474C4.00454 10.3228 3.84534 9.54623 3.84534 8.76197C3.84534 7.9777 4.00454 7.20112 4.31385 6.47655C4.62314 5.75198 5.07649 5.09362 5.648 4.53906C6.21952 3.9845 6.89801 3.5446 7.64471 3.24447C8.39143 2.94434 9.19176 2.78988 10 2.78988C10.8082 2.78988 11.6086 2.94434 12.3553 3.24447C13.102 3.5446 13.7804 3.9845 14.352 4.53906V4.54026ZM15.6566 14.252C16.7755 13.1664 17.5375 11.7832 17.8463 10.2774C18.1549 8.77154 17.9965 7.21067 17.3911 5.79219C16.7856 4.37371 15.7602 3.1613 14.4447 2.30829C13.129 1.45529 11.5823 1 10 1C8.41772 1 6.87098 1.45529 5.55537 2.30829C4.23977 3.1613 3.21439 4.37371 2.6089 5.79219C2.00342 7.21067 1.84503 8.77154 2.15377 10.2774C2.46251 11.7832 3.2245 13.1664 4.34338 14.252L8.69415 18.4749C8.8656 18.6414 9.06917 18.7734 9.29324 18.8635C9.5173 18.9537 9.75746 19 10 19C10.2425 19 10.4827 18.9537 10.7068 18.8635C10.9308 18.7734 11.1344 18.6414 11.3058 18.4749L15.6566 14.252ZM10 11.1517C10.6528 11.1517 11.2789 10.9 11.7406 10.4521C12.2022 10.0042 12.4615 9.39664 12.4615 8.76316C12.4615 8.12968 12.2022 7.52216 11.7406 7.07422C11.2789 6.62628 10.6528 6.37464 10 6.37464C9.34716 6.37464 8.72106 6.62628 8.25943 7.07422C7.79781 7.52216 7.53846 8.12968 7.53846 8.76316C7.53846 9.39664 7.79781 10.0042 8.25943 10.4521C8.72106 10.9 9.34716 11.1517 10 11.1517Z" fill="#191632"/>
</svg>
