<svg width="20" height="21" viewBox="0 0 20 21" fill="none" xmlns="http://www.w3.org/2000/svg">
<path fill-rule="evenodd" clip-rule="evenodd" d="M4.4 11C3.95817 11 3.6 11.3663 3.6 11.8182V17.5455C3.6 17.9973 3.95817 18.3636 4.4 18.3636H15.6C16.0418 18.3636 16.4 17.9973 16.4 17.5455V11.8182C16.4 11.3663 16.0418 11 15.6 11H4.4ZM2 11.8182C2 10.4626 3.07452 9.36364 4.4 9.36364H15.6C16.9255 9.36364 18 10.4626 18 11.8182V17.5455C18 18.9011 16.9255 20 15.6 20H4.4C3.07452 20 2 18.9011 2 17.5455V11.8182Z" fill="#191632"/>
<path fill-rule="evenodd" clip-rule="evenodd" d="M10 3.63636C9.15131 3.63636 8.33737 3.98117 7.73726 4.59492C7.13714 5.20868 6.8 6.04111 6.8 6.90909V10.1818C6.8 10.6337 6.44183 11 6 11C5.55817 11 5.2 10.6337 5.2 10.1818V6.90909C5.2 5.60712 5.70571 4.35847 6.60589 3.43784C7.50606 2.51721 8.72696 2 10 2C11.273 2 12.4939 2.51721 13.3941 3.43784C14.2943 4.35847 14.8 5.60712 14.8 6.90909V10.1818C14.8 10.6337 14.4418 11 14 11C13.5582 11 13.2 10.6337 13.2 10.1818V6.90909C13.2 6.04111 12.8629 5.20868 12.2627 4.59492C11.6626 3.98117 10.8487 3.63636 10 3.63636Z" fill="#191632"/>
</svg>
