<svg width="20" height="20" viewBox="0 0 20 20" fill="none" xmlns="http://www.w3.org/2000/svg">
<path fill-rule="evenodd" clip-rule="evenodd" d="M10.0001 1.66667C8.23197 1.66667 6.53628 2.36905 5.28604 3.61929C4.03579 4.86953 3.33341 6.56522 3.33341 8.33333C3.33341 10.915 5.0132 13.4202 6.85504 15.3644C7.75892 16.3185 8.66564 17.0996 9.34731 17.6424C9.60101 17.8444 9.8226 18.0127 10.0001 18.1438C10.1776 18.0127 10.3992 17.8444 10.6529 17.6424C11.3345 17.0996 12.2412 16.3185 13.1451 15.3644C14.987 13.4202 16.6667 10.915 16.6667 8.33333C16.6667 6.56522 15.9644 4.86953 14.7141 3.61929C13.4639 2.36905 11.7682 1.66667 10.0001 1.66667ZM10.0001 19.1667C9.53783 19.86 9.53762 19.8599 9.53738 19.8597L9.535 19.8582L9.52945 19.8544L9.51035 19.8415C9.49412 19.8305 9.47098 19.8147 9.44138 19.7942C9.38219 19.7532 9.29713 19.6934 9.18991 19.616C8.97554 19.4612 8.67205 19.2352 8.3091 18.9462C7.58453 18.3692 6.61624 17.5357 5.64512 16.5106C3.73697 14.4965 1.66675 11.585 1.66675 8.33333C1.66675 6.1232 2.54472 4.00358 4.10752 2.44078C5.67033 0.877974 7.78994 0 10.0001 0C12.2102 0 14.3298 0.877974 15.8926 2.44078C17.4554 4.00358 18.3334 6.1232 18.3334 8.33333C18.3334 11.585 16.2632 14.4965 14.355 16.5106C13.3839 17.5357 12.4156 18.3692 11.6911 18.9462C11.3281 19.2352 11.0246 19.4612 10.8103 19.616C10.703 19.6934 10.618 19.7532 10.5588 19.7942C10.5292 19.8147 10.506 19.8305 10.4898 19.8415L10.4707 19.8544L10.4652 19.8582L10.4634 19.8593C10.4632 19.8595 10.4623 19.86 10.0001 19.1667ZM10.0001 19.1667L10.4623 19.86C10.1824 20.0467 9.8173 20.0464 9.53738 19.8597L10.0001 19.1667Z" fill="#191632"/>
<path fill-rule="evenodd" clip-rule="evenodd" d="M10.0001 6.66667C9.07961 6.66667 8.33342 7.41286 8.33342 8.33333C8.33342 9.25381 9.07961 10 10.0001 10C10.9206 10 11.6667 9.25381 11.6667 8.33333C11.6667 7.41286 10.9206 6.66667 10.0001 6.66667ZM6.66675 8.33333C6.66675 6.49238 8.15913 5 10.0001 5C11.841 5 13.3334 6.49238 13.3334 8.33333C13.3334 10.1743 11.841 11.6667 10.0001 11.6667C8.15913 11.6667 6.66675 10.1743 6.66675 8.33333Z" fill="#191632"/>
</svg>
