<svg width="20" height="20" viewBox="0 0 20 20" fill="none" xmlns="http://www.w3.org/2000/svg">
<path d="M17.7668 4.20834L12.7667 2.54167H12.7084C12.6696 2.53777 12.6305 2.53777 12.5917 2.54167H12.4001H12.2917H12.2334L7.50008 4.16667L2.76675 2.54167C2.64143 2.50035 2.50809 2.48938 2.3777 2.50966C2.24731 2.52994 2.1236 2.5809 2.01675 2.65834C1.90905 2.73502 1.82114 2.83622 1.76028 2.95359C1.69942 3.07096 1.66736 3.20113 1.66675 3.33334V15C1.6663 15.1747 1.72077 15.3451 1.82245 15.4872C1.92414 15.6293 2.0679 15.7358 2.23342 15.7917L7.23342 17.4583C7.40129 17.5131 7.58221 17.5131 7.75008 17.4583L12.5001 15.875L17.2334 17.5C17.3219 17.512 17.4116 17.512 17.5001 17.5C17.6743 17.5025 17.8444 17.4467 17.9834 17.3417C18.0911 17.265 18.179 17.1638 18.2399 17.0464C18.3007 16.929 18.3328 16.7989 18.3334 16.6667V5C18.3339 4.8253 18.2794 4.65488 18.1777 4.51281C18.076 4.37075 17.9323 4.26424 17.7668 4.20834ZM6.66675 15.5083L3.33342 14.4V4.49167L6.66675 5.6V15.5083ZM11.6667 14.4L8.33342 15.5083V5.6L11.6667 4.49167V14.4ZM16.6667 15.5083L13.3334 14.4V4.49167L16.6667 5.6V15.5083Z" fill="#191632"/>
</svg>
