<svg width="20" height="20" viewBox="0 0 20 20" fill="none" xmlns="http://www.w3.org/2000/svg">
<g clip-path="url(#clip0)">
<path fill-rule="evenodd" clip-rule="evenodd" d="M7.6429 0.976311C8.26802 0.351189 9.11587 0 9.99992 0C10.884 0 11.7318 0.351189 12.3569 0.976311C12.9821 1.60143 13.3333 2.44928 13.3333 3.33333V10C13.3333 10.8841 12.9821 11.7319 12.3569 12.357C11.7318 12.9821 10.884 13.3333 9.99992 13.3333C9.11587 13.3333 8.26802 12.9821 7.6429 12.357C7.01778 11.7319 6.66659 10.8841 6.66659 10V3.33333C6.66659 2.44928 7.01778 1.60143 7.6429 0.976311ZM9.99992 1.66667C9.55789 1.66667 9.13397 1.84226 8.82141 2.15482C8.50885 2.46738 8.33325 2.89131 8.33325 3.33333V10C8.33325 10.442 8.50885 10.866 8.82141 11.1785C9.13397 11.4911 9.55789 11.6667 9.99992 11.6667C10.4419 11.6667 10.8659 11.4911 11.1784 11.1785C11.491 10.866 11.6666 10.442 11.6666 10V3.33333C11.6666 2.89131 11.491 2.46738 11.1784 2.15482C10.8659 1.84226 10.4419 1.66667 9.99992 1.66667Z" fill="#191632"/>
<path fill-rule="evenodd" clip-rule="evenodd" d="M4.16659 7.5C4.62682 7.5 4.99992 7.8731 4.99992 8.33333V10C4.99992 11.3261 5.5267 12.5979 6.46438 13.5355C7.40207 14.4732 8.67384 15 9.99992 15C11.326 15 12.5978 14.4732 13.5355 13.5355C14.4731 12.5979 14.9999 11.3261 14.9999 10V8.33333C14.9999 7.8731 15.373 7.5 15.8333 7.5C16.2935 7.5 16.6666 7.8731 16.6666 8.33333V10C16.6666 11.7681 15.9642 13.4638 14.714 14.714C13.4637 15.9643 11.768 16.6667 9.99992 16.6667C8.23181 16.6667 6.53612 15.9643 5.28587 14.714C4.03563 13.4638 3.33325 11.7681 3.33325 10V8.33333C3.33325 7.8731 3.70635 7.5 4.16659 7.5Z" fill="#191632"/>
<path fill-rule="evenodd" clip-rule="evenodd" d="M9.99992 15C10.4602 15 10.8333 15.3731 10.8333 15.8333V19.1667C10.8333 19.6269 10.4602 20 9.99992 20C9.53968 20 9.16659 19.6269 9.16659 19.1667V15.8333C9.16659 15.3731 9.53968 15 9.99992 15Z" fill="#191632"/>
<path fill-rule="evenodd" clip-rule="evenodd" d="M5.83325 19.1667C5.83325 18.7064 6.20635 18.3333 6.66658 18.3333H13.3333C13.7935 18.3333 14.1666 18.7064 14.1666 19.1667C14.1666 19.6269 13.7935 20 13.3333 20H6.66658C6.20635 20 5.83325 19.6269 5.83325 19.1667Z" fill="#191632"/>
</g>
<defs>
<clipPath id="clip0">
<rect width="20" height="20" fill="white"/>
</clipPath>
</defs>
</svg>
