<svg width="20" height="20" viewBox="0 0 20 20" fill="none" xmlns="http://www.w3.org/2000/svg">
<path d="M11.5923 16.5217C11.5923 16.8913 11.2923 17.1739 10.9 17.1739H9.12307C8.73076 17.1739 8.43076 16.8913 8.43076 16.5217C8.43076 16.1522 8.73076 15.8696 9.12307 15.8696H10.9C11.2692 15.8696 11.5923 16.1522 11.5923 16.5217ZM16 18.3478C16 19.2608 15.2154 20 14.2462 20H5.75384C4.78461 20 4 19.2608 4 18.3478V1.6522C4 0.739152 4.78461 0 5.75384 0H14.2462C15.2154 0 16 0.739152 16 1.6522V18.3478ZM5.84615 1.73913V13.2609H14.1538V1.73913H5.84615ZM14.1538 18.2609V14.5652H5.84615V18.2609H14.1538Z" fill="#191632"/>
</svg>
