<svg width="20" height="20" viewBox="0 0 20 20" fill="none" xmlns="http://www.w3.org/2000/svg">
<path fill-rule="evenodd" clip-rule="evenodd" d="M18.9227 1.07741C19.1717 1.32644 19.2373 1.70513 19.0866 2.02341L11.5866 17.8567C11.4359 18.1748 11.1016 18.364 10.7513 18.3293C10.4011 18.2946 10.1104 18.0436 10.025 17.7021L8.47958 11.5205L2.29799 9.97512C1.95652 9.88975 1.70551 9.59905 1.67082 9.24878C1.63614 8.89852 1.82527 8.56423 2.14336 8.41356L17.9767 0.913555C18.295 0.762793 18.6737 0.828387 18.9227 1.07741ZM4.96123 8.92297L9.36888 10.0249C9.66745 10.0995 9.90058 10.3327 9.97522 10.6312L11.0771 15.0389L16.5815 3.41865L4.96123 8.92297Z" fill="#191632"/>
</svg>
