<svg width="20" height="20" viewBox="0 0 20 20" fill="none" xmlns="http://www.w3.org/2000/svg">
<path d="M10.2499 10.1833C10.6946 9.79845 11.0512 9.32241 11.2956 8.78752C11.5401 8.25264 11.6666 7.67143 11.6666 7.08334C11.6666 5.97827 11.2276 4.91846 10.4462 4.13706C9.66479 3.35566 8.60499 2.91667 7.49992 2.91667C6.39485 2.91667 5.33504 3.35566 4.55364 4.13706C3.77224 4.91846 3.33325 5.97827 3.33325 7.08334C3.33325 7.67143 3.45975 8.25264 3.70419 8.78752C3.94863 9.32241 4.30527 9.79845 4.74992 10.1833C3.58337 10.7116 2.59364 11.5646 1.89907 12.6405C1.2045 13.7163 0.834478 14.9694 0.833252 16.25C0.833252 16.471 0.921049 16.683 1.07733 16.8393C1.23361 16.9955 1.44557 17.0833 1.66659 17.0833C1.8876 17.0833 2.09956 16.9955 2.25584 16.8393C2.41212 16.683 2.49992 16.471 2.49992 16.25C2.49992 14.9239 3.0267 13.6522 3.96438 12.7145C4.90207 11.7768 6.17384 11.25 7.49992 11.25C8.826 11.25 10.0978 11.7768 11.0355 12.7145C11.9731 13.6522 12.4999 14.9239 12.4999 16.25C12.4999 16.471 12.5877 16.683 12.744 16.8393C12.9003 16.9955 13.1122 17.0833 13.3333 17.0833C13.5543 17.0833 13.7662 16.9955 13.9225 16.8393C14.0788 16.683 14.1666 16.471 14.1666 16.25C14.1654 14.9694 13.7953 13.7163 13.1008 12.6405C12.4062 11.5646 11.4165 10.7116 10.2499 10.1833ZM7.49992 9.58334C7.00547 9.58334 6.52212 9.43672 6.11099 9.16201C5.69987 8.88731 5.37944 8.49686 5.19022 8.04005C5.001 7.58323 4.95149 7.08057 5.04796 6.59561C5.14442 6.11066 5.38252 5.6652 5.73215 5.31557C6.08178 4.96594 6.52724 4.72784 7.01219 4.63138C7.49715 4.53491 7.99981 4.58442 8.45663 4.77364C8.91344 4.96286 9.30389 5.28329 9.57859 5.69441C9.8533 6.10554 9.99992 6.58889 9.99992 7.08334C9.99992 7.74638 9.73653 8.38227 9.26769 8.85111C8.79884 9.31995 8.16296 9.58334 7.49992 9.58334ZM15.6166 9.85001C16.1499 9.24945 16.4983 8.50755 16.6198 7.71362C16.7412 6.91969 16.6307 6.10757 16.3014 5.37501C15.9721 4.64244 15.4381 4.02067 14.7636 3.58452C14.0892 3.14838 13.3031 2.91646 12.4999 2.91667C12.2789 2.91667 12.0669 3.00447 11.9107 3.16075C11.7544 3.31703 11.6666 3.52899 11.6666 3.75001C11.6666 3.97102 11.7544 4.18298 11.9107 4.33926C12.0669 4.49554 12.2789 4.58334 12.4999 4.58334C13.163 4.58334 13.7988 4.84673 14.2677 5.31557C14.7365 5.78441 14.9999 6.4203 14.9999 7.08334C14.9987 7.52104 14.8827 7.95076 14.6633 8.32952C14.4439 8.70829 14.129 9.02282 13.7499 9.24167C13.6264 9.31294 13.5232 9.41473 13.4502 9.53729C13.3773 9.65985 13.337 9.79909 13.3333 9.94167C13.3298 10.0831 13.3624 10.2232 13.428 10.3486C13.4936 10.4739 13.59 10.5806 13.7083 10.6583L14.0333 10.875L14.1416 10.9333C15.1461 11.4098 15.9935 12.1633 16.5841 13.1053C17.1746 14.0472 17.4837 15.1383 17.4749 16.25C17.4749 16.471 17.5627 16.683 17.719 16.8393C17.8753 16.9955 18.0872 17.0833 18.3083 17.0833C18.5293 17.0833 18.7412 16.9955 18.8975 16.8393C19.0538 16.683 19.1416 16.471 19.1416 16.25C19.1484 14.9712 18.8281 13.7119 18.2111 12.5917C17.5942 11.4716 16.701 10.5278 15.6166 9.85001Z" fill="#191632"/>
</svg>
