<svg width="21" height="20" viewBox="0 0 21 20" fill="none" xmlns="http://www.w3.org/2000/svg">
<path fill-rule="evenodd" clip-rule="evenodd" d="M17.6306 12.7801L18.2468 13.3031C18.5701 13.5749 18.9244 13.9005 19.2015 14.2733C19.4788 14.6462 19.684 15.073 19.6991 15.5464C19.717 16.1073 19.4711 16.6154 18.9862 17.054C18.8729 17.1595 17.5245 18.3936 15.9023 18.9385C15.4043 19.1058 14.9205 19.1942 14.4644 19.1996C11.8328 19.2317 9.08528 17.6358 6.29786 14.4987C3.50081 11.3699 2.22526 8.45325 2.54932 5.83587C2.68466 4.72814 3.30611 3.69299 3.9055 2.92309C4.50475 2.15336 5.09063 1.63779 5.17498 1.56498C5.42245 1.34403 5.68483 1.18442 5.9551 1.09364C6.69013 0.846748 7.31889 1.12275 7.80095 1.51794C8.27938 1.91014 8.62752 2.43047 8.81455 2.70998L8.81455 2.70999L8.81683 2.71339L9.26563 3.39668C9.52705 3.79194 10.0626 4.60176 10.3425 5.48544C10.6226 6.36965 10.6555 7.36118 9.85806 8.07537L9.27992 8.59571C9.24338 8.62805 9.2055 8.65977 9.16487 8.6937C8.86952 8.94001 8.64133 9.1655 8.62792 9.50162C8.61563 9.81023 8.77617 10.4077 9.71925 11.3864C10.1999 11.8852 10.6361 12.2445 11.0092 12.4583C11.3861 12.6742 11.679 12.7304 11.8851 12.6611C11.9992 12.6229 12.1556 12.4234 12.2969 12.2432C12.3717 12.1478 12.4422 12.0578 12.5 12C13 11.5 13.5043 11.3292 13.7498 11.2468C14.4119 11.0244 15.111 11.1829 15.7734 11.5037C16.4365 11.8248 17.0774 12.3158 17.6306 12.7801ZM17.7107 15.9859C17.7052 15.9904 17.7006 15.9943 17.6968 15.9974C17.5623 16.1096 17.3696 16.2632 17.1351 16.4306C16.6651 16.7662 16.0311 17.1543 15.3613 17.3792C15.0075 17.498 14.6787 17.559 14.3836 17.5625C12.247 17.5885 9.89728 16.2004 7.39751 13.3871C4.88926 10.5812 3.77438 8.08352 4.03773 5.9569C4.1375 5.14019 4.65679 4.31619 5.16484 3.68696C5.41749 3.37406 5.6645 3.11274 5.84952 2.92866C5.93541 2.84321 6.0939 2.69724 6.15944 2.63688C6.16445 2.63226 6.16892 2.62814 6.17278 2.62459C6.27673 2.53126 6.3702 2.4731 6.44154 2.44913C6.52508 2.42107 6.65649 2.45213 6.85208 2.62081C7.04223 2.78481 7.26706 3.05732 7.52465 3.44246L7.96948 4.11984C8.44332 4.83624 8.74752 5.4375 8.88115 5.90211C9.01681 6.37378 8.96738 6.66685 8.79906 6.8176L8.22445 7.33492C7.89954 7.60594 7.11624 8.26033 7.0745 9.30294C7.03661 10.2497 7.55144 11.2445 8.60675 12.3399C10.0222 13.8084 11.2597 14.3902 12.3714 14.0168C12.8817 13.8454 13.8889 12.8891 14.0825 12.6944C14.1324 12.6499 14.1827 12.6204 14.2362 12.6024C14.3654 12.559 14.5934 12.5553 14.9811 12.7242C15.3681 12.8928 15.9029 13.2285 16.637 13.8446L17.253 14.3674C17.6276 14.6823 17.8517 14.9226 17.9818 15.1026C18.1125 15.2834 18.1432 15.3963 18.1452 15.4585C18.1452 15.6269 17.8049 15.908 17.7107 15.9859Z" fill="#6D5AE6"/>
</svg>
