<svg width="20" height="20" viewBox="0 0 20 20" fill="none" xmlns="http://www.w3.org/2000/svg">
<path d="M9.361 12.961C9.3223 13.0038 9.28623 13.0488 9.253 13.096C9.21894 13.1462 9.1917 13.2006 9.172 13.258C9.14605 13.309 9.12785 13.3636 9.118 13.42C9.11358 13.4799 9.11358 13.5401 9.118 13.6C9.11496 13.7181 9.13962 13.8352 9.19 13.942C9.23042 14.0537 9.29491 14.1551 9.3789 14.2391C9.46289 14.3231 9.56432 14.3876 9.676 14.428C9.78373 14.4756 9.90022 14.5002 10.018 14.5002C10.1358 14.5002 10.2523 14.4756 10.36 14.428C10.4717 14.3876 10.5731 14.3231 10.6571 14.2391C10.7411 14.1551 10.8056 14.0537 10.846 13.942C10.886 13.8326 10.9043 13.7164 10.9 13.6C10.9007 13.4816 10.878 13.3641 10.8332 13.2545C10.7884 13.1448 10.7224 13.0451 10.639 12.961C10.5553 12.8766 10.4558 12.8097 10.3461 12.764C10.2364 12.7183 10.1188 12.6948 10 12.6948C9.88119 12.6948 9.76356 12.7183 9.65388 12.764C9.54421 12.8097 9.44467 12.8766 9.361 12.961ZM10 1C8.21997 1 6.47991 1.52784 4.99987 2.51677C3.51983 3.50571 2.36628 4.91131 1.68509 6.55585C1.0039 8.20038 0.82567 10.01 1.17294 11.7558C1.5202 13.5016 2.37737 15.1053 3.63604 16.364C4.89471 17.6226 6.49836 18.4798 8.24419 18.8271C9.99002 19.1743 11.7996 18.9961 13.4442 18.3149C15.0887 17.6337 16.4943 16.4802 17.4832 15.0001C18.4722 13.5201 19 11.78 19 10C19 8.8181 18.7672 7.64778 18.3149 6.55585C17.8626 5.46392 17.1997 4.47177 16.364 3.63604C15.5282 2.80031 14.5361 2.13738 13.4442 1.68508C12.3522 1.23279 11.1819 1 10 1ZM10 17.2C8.57598 17.2 7.18393 16.7777 5.9999 15.9866C4.81586 15.1954 3.89302 14.0709 3.34807 12.7553C2.80312 11.4397 2.66054 9.99201 2.93835 8.59535C3.21616 7.19868 3.9019 5.91577 4.90883 4.90883C5.91577 3.90189 7.19869 3.21616 8.59535 2.93835C9.99201 2.66053 11.4397 2.80312 12.7553 3.34807C14.0709 3.89302 15.1954 4.81586 15.9866 5.99989C16.7777 7.18393 17.2 8.57597 17.2 10C17.2 11.9096 16.4414 13.7409 15.0912 15.0912C13.7409 16.4414 11.9096 17.2 10 17.2ZM10 5.5C9.52576 5.49969 9.0598 5.62431 8.64902 5.8613C8.23824 6.09829 7.89712 6.43929 7.66 6.85C7.59488 6.95243 7.55116 7.06698 7.53146 7.18676C7.51176 7.30653 7.51649 7.42905 7.54537 7.54695C7.57425 7.66484 7.62667 7.77568 7.6995 7.87279C7.77232 7.9699 7.86404 8.05127 7.96913 8.11202C8.07421 8.17276 8.19051 8.21162 8.311 8.22626C8.4315 8.2409 8.55371 8.23101 8.67029 8.19719C8.78686 8.16337 8.89539 8.10632 8.98934 8.02947C9.0833 7.95261 9.16074 7.85755 9.217 7.75C9.2963 7.61265 9.41047 7.4987 9.54797 7.41968C9.68547 7.34066 9.84141 7.29937 10 7.3C10.2387 7.3 10.4676 7.39482 10.6364 7.5636C10.8052 7.73238 10.9 7.9613 10.9 8.2C10.9 8.43869 10.8052 8.66761 10.6364 8.83639C10.4676 9.00518 10.2387 9.1 10 9.1C9.76131 9.1 9.53239 9.19482 9.36361 9.3636C9.19482 9.53238 9.1 9.7613 9.1 10V10.9C9.1 11.1387 9.19482 11.3676 9.36361 11.5364C9.53239 11.7052 9.76131 11.8 10 11.8C10.2387 11.8 10.4676 11.7052 10.6364 11.5364C10.8052 11.3676 10.9 11.1387 10.9 10.9V10.738C11.4952 10.522 11.9956 10.1037 12.3137 9.55618C12.6318 9.00866 12.7473 8.36676 12.6401 7.7427C12.5328 7.11864 12.2097 6.55211 11.7271 6.14216C11.2445 5.73221 10.6332 5.50491 10 5.5Z" fill="#191632"/>
</svg>
