<svg width="20" height="20" viewBox="0 0 20 20" fill="none" xmlns="http://www.w3.org/2000/svg">
<path fill-rule="evenodd" clip-rule="evenodd" d="M14.6339 6.36612C15.122 6.85427 15.122 7.64573 14.6339 8.13388L7.13388 15.6339C6.64573 16.122 5.85427 16.122 5.36612 15.6339C4.87796 15.1457 4.87796 14.3543 5.36612 13.8661L12.8661 6.36612C13.3543 5.87796 14.1457 5.87796 14.6339 6.36612Z" fill="#191632"/>
<path fill-rule="evenodd" clip-rule="evenodd" d="M5.36612 6.36612C5.85427 5.87796 6.64573 5.87796 7.13388 6.36612L14.6339 13.8661C15.122 14.3543 15.122 15.1457 14.6339 15.6339C14.1457 16.122 13.3543 16.122 12.8661 15.6339L5.36612 8.13388C4.87796 7.64573 4.87796 6.85427 5.36612 6.36612Z" fill="#191632"/>
</svg>
