<svg width="20" height="20" viewBox="0 0 20 20" fill="none" xmlns="http://www.w3.org/2000/svg">
<path fill-rule="evenodd" clip-rule="evenodd" d="M18.9225 1.0774C19.2479 1.40284 19.2479 1.93047 18.9225 2.25591L9.75585 11.4226C9.43041 11.748 8.90277 11.748 8.57733 11.4226C8.2519 11.0971 8.2519 10.5695 8.57733 10.2441L17.744 1.0774C18.0694 0.751962 18.5971 0.751962 18.9225 1.0774Z" fill="#191632"/>
<path fill-rule="evenodd" clip-rule="evenodd" d="M18.9225 1.0774C19.1489 1.30376 19.2256 1.63979 19.1198 1.94195L13.2865 18.6086C13.1736 18.9311 12.8753 19.152 12.5339 19.166C12.1925 19.1799 11.8772 18.984 11.7384 18.6718L8.53525 11.4647L1.32814 8.2615C1.01591 8.12273 0.820021 7.80742 0.833949 7.46602C0.847877 7.12462 1.0688 6.82631 1.3913 6.71344L18.058 0.880106C18.3601 0.774351 18.6961 0.851034 18.9225 1.0774ZM3.92582 7.59216L9.50504 10.0718C9.69357 10.1556 9.84431 10.3063 9.9281 10.4949L12.4078 16.0741L16.9749 3.02496L3.92582 7.59216Z" fill="#191632"/>
</svg>
