<svg width="20" height="20" viewBox="0 0 20 20" fill="none" xmlns="http://www.w3.org/2000/svg">
<path fill-rule="evenodd" clip-rule="evenodd" d="M9.38293 2.7153C9.58608 2.69691 9.79189 2.6875 10 2.6875C10.2081 2.6875 10.4139 2.69691 10.6171 2.7153C10.6554 2.71876 10.7339 2.75668 10.7648 2.8798L11.0771 4.12325C11.2355 4.75386 11.6703 5.21062 12.1545 5.46032C12.3419 5.557 12.5226 5.66597 12.6956 5.78623C13.1457 6.09919 13.7435 6.26315 14.3475 6.09059L15.539 5.75014C15.6566 5.71652 15.7275 5.7681 15.7497 5.80103C15.9858 6.15079 16.193 6.52289 16.368 6.91361C16.384 6.94945 16.3919 7.03891 16.3049 7.12839L15.4247 8.03415C14.9801 8.49161 14.8172 9.11134 14.8515 9.67283C14.8581 9.7809 14.8614 9.88997 14.8614 10C14.8614 10.11 14.8581 10.2191 14.8515 10.3272C14.8172 10.8887 14.9801 11.5084 15.4247 11.9658L16.3049 12.8716C16.3919 12.9611 16.384 13.0505 16.368 13.0864C16.193 13.4771 15.9858 13.8492 15.7497 14.1989C15.7275 14.2319 15.6566 14.2834 15.539 14.2499L14.3475 13.9094C13.7435 13.7368 13.1457 13.9008 12.6956 14.2138C12.5226 14.3341 12.3419 14.443 12.1545 14.5397C11.6703 14.7894 11.2355 15.2461 11.0771 15.8768L10.7648 17.1202C10.7339 17.2433 10.6554 17.2812 10.6171 17.2847C10.4139 17.303 10.2081 17.3125 10 17.3125C9.79189 17.3125 9.58608 17.303 9.38293 17.2847C9.34458 17.2812 9.26612 17.2433 9.2352 17.1202L8.92289 15.8767C8.76452 15.2461 8.32966 14.7894 7.84556 14.5397C7.65811 14.443 7.47743 14.3341 7.30449 14.2138C6.85441 13.9008 6.25652 13.7368 5.65258 13.9094L4.46101 14.2499C4.34335 14.2834 4.27247 14.2319 4.25024 14.1989C4.01422 13.8492 3.80699 13.4771 3.63203 13.0864C3.61598 13.0505 3.6081 12.9611 3.69506 12.8716L4.57538 11.9658C5.01995 11.5083 5.18289 10.8886 5.14858 10.3271C5.14199 10.2191 5.13863 10.11 5.13863 10C5.13863 9.89 5.14199 9.78092 5.14858 9.67287C5.18289 9.1114 5.01995 8.49167 4.57538 8.03422L3.69506 7.12839C3.6081 7.03892 3.61598 6.94946 3.63203 6.91362C3.80699 6.52289 4.01422 6.15079 4.25025 5.80103C4.27247 5.7681 4.34335 5.71653 4.46101 5.75014L5.65258 6.0906C6.25652 6.26317 6.85441 6.0992 7.30449 5.78624C7.47743 5.66599 7.65811 5.55703 7.84556 5.46034C8.32965 5.21064 8.76452 4.75388 8.92289 4.12328L9.2352 2.8798C9.26612 2.75668 9.34458 2.71876 9.38293 2.7153ZM10 1C9.74498 1 9.49235 1.01153 9.24259 1.03414C8.44015 1.10678 7.85009 1.72567 7.66746 2.4528L7.35515 3.6963C7.33629 3.77143 7.26992 3.8741 7.1263 3.94819C6.87609 4.07725 6.63511 4.22258 6.40464 4.38284C6.27178 4.47521 6.15337 4.48383 6.08136 4.46326L4.88978 4.12279C4.19488 3.92424 3.38663 4.14583 2.9244 4.83079C2.63409 5.26102 2.37894 5.71907 2.16339 6.20045C1.82312 6.96034 2.04332 7.80113 2.55609 8.32877L3.43642 9.23458C3.48951 9.28921 3.54151 9.40012 3.53139 9.56574C3.52262 9.70942 3.51817 9.85423 3.51817 10C3.51817 10.1458 3.52262 10.2906 3.53139 10.4343C3.54151 10.5999 3.48951 10.7108 3.43642 10.7654L2.55609 11.6712C2.04332 12.1989 1.82312 13.0396 2.16339 13.7996C2.37894 14.281 2.63409 14.7389 2.9244 15.1692C3.38663 15.8542 4.19488 16.0758 4.88978 15.8772L6.08136 15.5368C6.15337 15.5162 6.27179 15.5248 6.40464 15.6171C6.63511 15.7774 6.87609 15.9228 7.1263 16.0518C7.26992 16.1259 7.33629 16.2286 7.35515 16.3037L7.66746 17.5472C7.85009 18.2744 8.44015 18.8932 9.24259 18.9659C9.49235 18.9885 9.74498 19 10 19C10.255 19 10.5077 18.9885 10.7574 18.9659C11.5598 18.8932 12.1499 18.2744 12.3325 17.5472L12.6448 16.3037C12.6637 16.2286 12.7301 16.126 12.8737 16.0518C13.1239 15.9228 13.365 15.7774 13.5954 15.6171C13.7283 15.5248 13.8467 15.5162 13.9187 15.5368L15.1102 15.8772C15.8052 16.0758 16.6133 15.8542 17.0756 15.1693C17.3659 14.7389 17.6211 14.281 17.8366 13.7996C18.1769 13.0396 17.9567 12.1989 17.4439 11.6712L16.5637 10.7655C16.5105 10.7109 16.4585 10.5999 16.4687 10.4343C16.4774 10.2906 16.4819 10.1458 16.4819 10C16.4819 9.85421 16.4774 9.70939 16.4687 9.56568C16.4585 9.40006 16.5105 9.28915 16.5637 9.23453L17.4439 8.32876C17.9567 7.80112 18.1769 6.96033 17.8366 6.20044C17.6211 5.71906 17.3659 5.261 17.0756 4.83079C16.6133 4.14581 15.8052 3.92424 15.1102 4.12279L13.9187 4.46323C13.8467 4.48381 13.7283 4.4752 13.5954 4.38283C13.365 4.22256 13.1239 4.07721 12.8737 3.94814C12.7301 3.87407 12.6637 3.77139 12.6448 3.69625L12.3325 2.4528C12.1499 1.72567 11.5598 1.10678 10.7574 1.03414C10.5077 1.01153 10.255 1 10 1ZM11.6205 10C11.6205 10.932 10.895 11.6875 10 11.6875C9.10504 11.6875 8.37954 10.932 8.37954 10C8.37954 9.06802 9.10504 8.3125 10 8.3125C10.895 8.3125 11.6205 9.06802 11.6205 10ZM13.2409 10C13.2409 11.864 11.7899 13.375 10 13.375C8.21009 13.375 6.75907 11.864 6.75907 10C6.75907 8.13604 8.21009 6.625 10 6.625C11.7899 6.625 13.2409 8.13604 13.2409 10Z" fill="#191632"/>
</svg>
