<svg width="20" height="20" viewBox="0 0 20 20" fill="none" xmlns="http://www.w3.org/2000/svg">
<path d="M15.8182 8.74689C15.3239 8.74689 14.9231 9.14762 14.9231 9.64198V13.9234C14.9231 13.9435 14.885 13.9832 14.8605 13.9832L8.07564 13.9832V12.136C8.07564 11.8615 7.90584 11.6699 7.66273 11.6699C7.56969 11.6699 7.47588 11.6989 7.38396 11.7562L3.08656 14.432C2.92929 14.53 2.83916 14.6772 2.83911 14.8361C2.83911 14.9942 2.92862 15.1406 3.08473 15.2379L7.38387 17.9136C7.47593 17.9709 7.56969 18 7.66273 18C7.90584 18 8.07564 17.8083 8.07564 17.5339L8.07564 15.7734L14.8605 15.7734C15.8648 15.7734 16.7133 14.9262 16.7133 13.9234V9.64198C16.7133 9.14762 16.3126 8.74689 15.8182 8.74689Z" fill="#191632"/>
<path d="M16.9154 4.76213L12.6163 2.08642C12.5242 2.02909 12.4305 2 12.3374 2C12.0943 2 11.9245 2.19168 11.9245 2.46617V4.22664L5.13967 4.22664C4.13537 4.22664 3.28687 5.07385 3.28687 6.07662L3.28687 10.358C3.28687 10.8524 3.6876 11.2531 4.18196 11.2531C4.67632 11.2531 5.07705 10.8524 5.07705 10.358L5.07705 6.07662C5.07705 6.05653 5.11514 6.01683 5.13967 6.01683L11.9245 6.01683L11.9245 7.86404C11.9245 8.13847 12.0943 8.33016 12.3374 8.33016C12.4305 8.33016 12.5243 8.30111 12.6162 8.24383L16.9136 5.56798C17.0709 5.47006 17.161 5.32277 17.1611 5.16394C17.1611 5.00582 17.0715 4.85943 16.9154 4.76213Z" fill="#191632"/>
</svg>
