<svg width="20" height="20" viewBox="0 0 20 20" fill="none" xmlns="http://www.w3.org/2000/svg">
<path d="M16.6667 5.00001H13.3333V4.16667C13.3333 3.50363 13.0699 2.86775 12.6011 2.3989C12.1323 1.93006 11.4964 1.66667 10.8333 1.66667H9.16667C8.50363 1.66667 7.86774 1.93006 7.3989 2.3989C6.93006 2.86775 6.66667 3.50363 6.66667 4.16667V5.00001H3.33333C3.11232 5.00001 2.90036 5.0878 2.74408 5.24408C2.5878 5.40036 2.5 5.61232 2.5 5.83334C2.5 6.05435 2.5878 6.26631 2.74408 6.42259C2.90036 6.57887 3.11232 6.66667 3.33333 6.66667H4.16667V15.8333C4.16667 16.4964 4.43006 17.1323 4.8989 17.6011C5.36774 18.0699 6.00363 18.3333 6.66667 18.3333H13.3333C13.9964 18.3333 14.6323 18.0699 15.1011 17.6011C15.5699 17.1323 15.8333 16.4964 15.8333 15.8333V6.66667H16.6667C16.8877 6.66667 17.0996 6.57887 17.2559 6.42259C17.4122 6.26631 17.5 6.05435 17.5 5.83334C17.5 5.61232 17.4122 5.40036 17.2559 5.24408C17.0996 5.0878 16.8877 5.00001 16.6667 5.00001ZM8.33333 4.16667C8.33333 3.94566 8.42113 3.7337 8.57741 3.57742C8.73369 3.42114 8.94565 3.33334 9.16667 3.33334H10.8333C11.0543 3.33334 11.2663 3.42114 11.4226 3.57742C11.5789 3.7337 11.6667 3.94566 11.6667 4.16667V5.00001H8.33333V4.16667ZM14.1667 15.8333C14.1667 16.0544 14.0789 16.2663 13.9226 16.4226C13.7663 16.5789 13.5543 16.6667 13.3333 16.6667H6.66667C6.44565 16.6667 6.23369 16.5789 6.07741 16.4226C5.92113 16.2663 5.83333 16.0544 5.83333 15.8333V6.66667H14.1667V15.8333Z" fill="#191632"/>
</svg>
