<svg width="20" height="20" viewBox="0 0 20 20" fill="none" xmlns="http://www.w3.org/2000/svg">
<path d="M16.6476 18.901C16.2328 18.901 15.8965 18.5722 15.8965 18.1666C15.8965 15.2912 13.5041 12.9519 10.5634 12.9519H9.43664C6.49594 12.9519 4.1035 15.2912 4.1035 18.1666C4.1035 18.5722 3.76721 18.901 3.35235 18.901C2.9375 18.901 2.60121 18.5722 2.60121 18.1666C2.60121 14.4813 5.66757 11.483 9.43664 11.483H10.5634C14.3324 11.483 17.3988 14.4813 17.3988 18.1666C17.3988 18.5722 17.0625 18.901 16.6476 18.901Z" fill="#191632"/>
<path d="M9.92488 10.0141C7.12916 10.0141 4.85465 7.79015 4.85465 5.05654C4.85465 2.32293 7.12916 0.0989584 9.92488 0.0989584C12.7206 0.0989584 14.9951 2.32293 14.9951 5.05654C14.9951 7.79015 12.7206 10.0141 9.92488 10.0141ZM9.92488 1.56787C7.95752 1.56787 6.35694 3.13289 6.35694 5.05654C6.35694 6.98019 7.95752 8.54521 9.92488 8.54521C11.8923 8.54521 13.4928 6.98019 13.4928 5.05654C13.4928 3.13289 11.8923 1.56787 9.92488 1.56787Z" fill="#191632"/>
<path fill-rule="evenodd" clip-rule="evenodd" d="M16.6476 19C16.1769 19 15.7953 18.6269 15.7953 18.1666C15.7953 15.3459 13.4482 13.0509 10.5634 13.0509H9.43664C6.55183 13.0509 4.20471 15.3459 4.20471 18.1666C4.20471 18.6269 3.82311 19 3.35235 19C2.8816 19 2.5 18.6269 2.5 18.1666C2.5 14.4266 5.61168 11.3841 9.43664 11.3841H10.5634C14.3883 11.3841 17.5 14.4266 17.5 18.1666C17.5 18.6269 17.1184 19 16.6476 19ZM9.92488 10.1131C7.07326 10.1131 4.75344 7.8448 4.75344 5.05654C4.75344 2.26828 7.07326 0 9.92488 0C12.7765 0 15.0963 2.26828 15.0963 5.05654C15.0963 7.8448 12.7765 10.1131 9.92488 10.1131ZM9.92488 1.66683C8.01341 1.66683 6.45815 3.18754 6.45815 5.05654C6.45815 6.92554 8.01341 8.44625 9.92488 8.44625C11.8364 8.44625 13.3916 6.92554 13.3916 5.05654C13.3916 3.18754 11.8364 1.66683 9.92488 1.66683ZM4.85465 5.05654C4.85465 7.79015 7.12916 10.0141 9.92488 10.0141C12.7206 10.0141 14.9951 7.79015 14.9951 5.05654C14.9951 2.32293 12.7206 0.0989584 9.92488 0.0989584C7.12916 0.0989584 4.85465 2.32293 4.85465 5.05654ZM6.35694 5.05654C6.35694 3.13289 7.95752 1.56787 9.92488 1.56787C11.8923 1.56787 13.4928 3.13289 13.4928 5.05654C13.4928 6.98019 11.8923 8.54521 9.92488 8.54521C7.95752 8.54521 6.35694 6.98019 6.35694 5.05654ZM15.8965 18.1666C15.8965 18.5722 16.2328 18.901 16.6476 18.901C17.0625 18.901 17.3988 18.5722 17.3988 18.1666C17.3988 14.4813 14.3324 11.483 10.5634 11.483H9.43664C5.66757 11.483 2.60121 14.4813 2.60121 18.1666C2.60121 18.5722 2.9375 18.901 3.35235 18.901C3.76721 18.901 4.1035 18.5722 4.1035 18.1666C4.1035 15.2912 6.49594 12.9519 9.43664 12.9519H10.5634C13.5041 12.9519 15.8965 15.2912 15.8965 18.1666Z" fill="#191632"/>
</svg>
