<svg width="20" height="20" viewBox="0 0 20 20" fill="none" xmlns="http://www.w3.org/2000/svg">
<path fill-rule="evenodd" clip-rule="evenodd" d="M19.548 5.09237C19.8255 5.23521 20 5.52119 20 5.83334V14.1667C20 14.4788 19.8255 14.7648 19.548 14.9076C19.2704 15.0505 18.9363 15.0262 18.6823 14.8448L12.849 10.6781C12.63 10.5217 12.5 10.2691 12.5 10C12.5 9.73088 12.63 9.47832 12.849 9.3219L18.6823 5.15523C18.9363 4.97379 19.2704 4.94953 19.548 5.09237ZM14.7671 10L18.3333 12.5474V7.45267L14.7671 10Z" fill="#191632"/>
<path fill-rule="evenodd" clip-rule="evenodd" d="M2.5 5.00001C2.03976 5.00001 1.66667 5.37311 1.66667 5.83334V14.1667C1.66667 14.6269 2.03976 15 2.5 15H11.6667C12.1269 15 12.5 14.6269 12.5 14.1667V5.83334C12.5 5.37311 12.1269 5.00001 11.6667 5.00001H2.5ZM0 5.83334C0 4.45263 1.11929 3.33334 2.5 3.33334H11.6667C13.0474 3.33334 14.1667 4.45263 14.1667 5.83334V14.1667C14.1667 15.5474 13.0474 16.6667 11.6667 16.6667H2.5C1.11929 16.6667 0 15.5474 0 14.1667V5.83334Z" fill="#191632"/>
</svg>
