<svg width="20" height="20" viewBox="0 0 20 20" fill="none" xmlns="http://www.w3.org/2000/svg">
<path fill-rule="evenodd" clip-rule="evenodd" d="M9.52758 3.41558C9.8163 3.55435 9.99992 3.84633 9.99992 4.16667V15.8333C9.99992 16.1537 9.8163 16.4457 9.52758 16.5844C9.23886 16.7232 8.89615 16.6842 8.64601 16.4841L4.7076 13.3333H1.66659C1.20635 13.3333 0.833252 12.9602 0.833252 12.5V7.5C0.833252 7.03976 1.20635 6.66667 1.66659 6.66667H4.7076L8.64601 3.51594C8.89615 3.31583 9.23886 3.27682 9.52758 3.41558ZM8.33325 5.90052L5.5205 8.15073C5.37274 8.26893 5.18915 8.33333 4.99992 8.33333H2.49992V11.6667H4.99992C5.18915 11.6667 5.37274 11.7311 5.5205 11.8493L8.33325 14.0995V5.90052Z" fill="#191632"/>
<path fill-rule="evenodd" clip-rule="evenodd" d="M15.3024 3.51898C15.6279 3.19359 16.1555 3.19367 16.4809 3.51916C18.1994 5.23816 19.1648 7.56932 19.1648 9.99999C19.1648 12.4307 18.1994 14.7618 16.4809 16.4808C16.1555 16.8063 15.6279 16.8064 15.3024 16.481C14.9769 16.1556 14.9769 15.628 15.3022 15.3025C16.7083 13.896 17.4981 11.9887 17.4981 9.99999C17.4981 8.01126 16.7083 6.10395 15.3022 4.69749C14.9769 4.37201 14.9769 3.84437 15.3024 3.51898ZM12.3608 6.46065C12.6862 6.13526 13.2139 6.13534 13.5393 6.46083C14.4766 7.39847 15.0032 8.67001 15.0032 9.99583C15.0032 11.3216 14.4766 12.5932 13.5393 13.5308C13.2139 13.8563 12.6862 13.8564 12.3608 13.531C12.0353 13.2056 12.0352 12.678 12.3606 12.3525C12.9855 11.7274 13.3365 10.8797 13.3365 9.99583C13.3365 9.11195 12.9855 8.26425 12.3606 7.63916C12.0352 7.31367 12.0353 6.78604 12.3608 6.46065Z" fill="#191632"/>
</svg>
