<svg width="40" height="48" viewBox="0 0 40 48" fill="none" xmlns="http://www.w3.org/2000/svg">
<path d="M34.1423 5.89418C30.3649 2.09326 25.3422 0 20.0002 0C14.6581 0 9.6356 2.09316 5.85785 5.89418C2.08039 9.69501 0 14.7483 0 20.1235C0 25.4987 2.08039 30.5522 5.85785 34.3531L19.012 47.5882C19.2849 47.8628 19.6426 48 20.0002 48C20.3579 48 20.7156 47.8627 20.9884 47.5882L34.142 34.3532C37.9196 30.5523 39.9999 25.4988 40 20.1236C39.9999 14.7482 37.9197 9.69491 34.1423 5.89418ZM26.2812 26.4432C24.6035 28.1313 22.373 29.061 20.0003 29.061C17.6276 29.061 15.397 28.1314 13.7194 26.4433C12.0416 24.7553 11.1177 22.5109 11.1177 20.1235C11.1177 17.7363 12.0416 15.4919 13.7194 13.8037C15.397 12.1156 17.6276 11.186 20.0003 11.186C22.373 11.186 24.6035 12.1156 26.2812 13.8037C27.9589 15.4917 28.8829 17.7361 28.8829 20.1234C28.8828 22.5108 27.9588 24.7553 26.2812 26.4432Z" fill="#6D5AE6"/>
</svg>
